<svg width="31" height="31" viewBox="0 0 31 31" fill="none" xmlns="http://www.w3.org/2000/svg">
<path d="M15.7175 15.9167C17.7842 15.9167 19.4675 14.2333 19.4675 12.1667C19.4675 10.1 17.7842 8.41667 15.7175 8.41667C13.6509 8.41667 11.9675 10.1 11.9675 12.1667C11.9675 14.2333 13.6509 15.9167 15.7175 15.9167ZM23.2175 22.5833C23.2175 20.0833 18.2175 18.8333 15.7175 18.8333C13.2175 18.8333 8.21753 20.0833 8.21753 22.5833V23.8333H23.2175V22.5833ZM27.3842 0.5H4.05086C2.21753 0.5 0.717529 2 0.717529 3.83333V27.1667C0.717529 29 2.21753 30.5 4.05086 30.5H27.3842C29.2175 30.5 30.7175 29 30.7175 27.1667V3.83333C30.7175 2 29.2175 0.5 27.3842 0.5ZM25.7175 27.1667H5.71753C4.80086 27.1667 4.05086 26.4167 4.05086 25.5V5.5C4.05086 4.58333 4.80086 3.83333 5.71753 3.83333H25.7175C26.6342 3.83333 27.3842 4.58333 27.3842 5.5V25.5C27.3842 26.4167 26.6342 27.1667 25.7175 27.1667Z" fill="#4D88FF"/>
</svg>
