<svg width="34" height="31" viewBox="0 0 34 31" fill="none" xmlns="http://www.w3.org/2000/svg">
<path fill-rule="evenodd" clip-rule="evenodd" d="M30.2683 0.5H3.60164C1.76831 0.5 0.268311 2 0.268311 3.83333V27.1667C0.268311 29 1.76831 30.5 3.60164 30.5H30.2683C32.1016 30.5 33.6016 29 33.6016 27.1667V3.83333C33.6016 2 32.1016 0.5 30.2683 0.5ZM11.935 23.8333H6.93498C6.01831 23.8333 5.26831 23.0833 5.26831 22.1667C5.26831 21.25 6.01831 20.5 6.93498 20.5H11.935C12.8516 20.5 13.6016 21.25 13.6016 22.1667C13.6016 23.0833 12.8516 23.8333 11.935 23.8333ZM11.935 17.1667H6.93498C6.01831 17.1667 5.26831 16.4167 5.26831 15.5C5.26831 14.5833 6.01831 13.8333 6.93498 13.8333H11.935C12.8516 13.8333 13.6016 14.5833 13.6016 15.5C13.6016 16.4167 12.8516 17.1667 11.935 17.1667ZM11.935 10.5H6.93498C6.01831 10.5 5.26831 9.75 5.26831 8.83333C5.26831 7.91667 6.01831 7.16667 6.93498 7.16667H11.935C12.8516 7.16667 13.6016 7.91667 13.6016 8.83333C13.6016 9.75 12.8516 10.5 11.935 10.5ZM28.1016 14.0333L22.8183 19.3167C22.1683 19.9667 21.1016 19.9667 20.4516 19.3167L18.1016 16.95C17.4516 16.3 17.4516 15.25 18.1016 14.6C18.7516 13.95 19.8016 13.95 20.4516 14.6L21.635 15.7833L25.7516 11.6667C26.4016 11.0167 27.4516 11.0167 28.1016 11.6667L28.1183 11.6833C28.7516 12.3333 28.7516 13.4 28.1016 14.0333Z" fill="#4D88FF"/>
</svg>
