<?xml version="1.0" encoding="utf-8"?>
<!-- Generator: Adobe Illustrator 24.1.2, SVG Export Plug-In . SVG Version: 6.00 Build 0)  -->
<svg version="1.1" id="Layer_1" xmlns="http://www.w3.org/2000/svg" xmlns:xlink="http://www.w3.org/1999/xlink" x="0px" y="0px"
	 viewBox="0 0 1002.46 201.24" style="enable-background:new 0 0 1002.46 201.24;" xml:space="preserve">
<style type="text/css">
	.st0{fill:#000022;}
	.st1{fill:#2832EE;}
</style>
<g>
	<g>
		<path class="st0" d="M156.95,134.45l47.8-130.71h26.89l47.8,130.71h-25.4l-10.46-30.25h-50.98l-10.64,30.25H156.95z M199.15,85.52
			h37.91l-19.05-54.34L199.15,85.52z"/>
		<path class="st0" d="M328.55,136.69c-11.58,0-20.51-3.61-26.8-10.83c-6.29-7.22-9.43-17.8-9.43-31.74V41.83h23.71v50.04
			c0,7.97,1.62,14.07,4.85,18.3c3.24,4.23,8.34,6.35,15.31,6.35c6.6,0,12.04-2.36,16.34-7.1c4.29-4.73,6.44-11.33,6.44-19.79v-47.8
			h23.9v92.62h-21.1l-1.87-15.69c-2.87,5.48-7,9.84-12.42,13.07C342.09,135.07,335.77,136.69,328.55,136.69z"/>
		<path class="st0" d="M448.62,134.45c-9.71,0-17.49-2.36-23.34-7.1c-5.85-4.73-8.78-13.13-8.78-25.21V61.81h-15.87V41.83h15.87
			l2.8-24.83h21.1v24.83h25.02v19.98H440.4v40.52c0,4.48,0.96,7.56,2.89,9.24c1.93,1.68,5.26,2.52,9.99,2.52h11.58v20.35H448.62z"/>
		<path class="st0" d="M527.98,136.69c-8.96,0-17.02-2.05-24.18-6.16c-7.16-4.11-12.82-9.8-16.99-17.09
			c-4.17-7.28-6.26-15.71-6.26-25.3c0-9.58,2.12-18.02,6.35-25.3c4.23-7.28,9.93-12.98,17.09-17.09c7.16-4.11,15.22-6.16,24.18-6.16
			c8.84,0,16.84,2.05,23.99,6.16c7.16,4.11,12.82,9.8,16.99,17.09c4.17,7.28,6.25,15.72,6.25,25.3c0,9.59-2.09,18.02-6.25,25.3
			c-4.17,7.28-9.87,12.98-17.09,17.09C544.85,134.63,536.82,136.69,527.98,136.69z M527.98,115.96c6.22,0,11.64-2.33,16.25-7
			c4.6-4.67,6.91-11.61,6.91-20.82c0-9.21-2.31-16.15-6.91-20.82c-4.61-4.67-9.96-7-16.06-7c-6.35,0-11.8,2.33-16.34,7
			c-4.55,4.67-6.82,11.61-6.82,20.82c0,9.21,2.27,16.15,6.82,20.82C516.37,113.63,521.75,115.96,527.98,115.96z"/>
		<path class="st0" d="M596.69,134.45V41.83h21.1l2.05,12.51c2.99-4.48,6.94-8.06,11.86-10.74c4.92-2.68,10.61-4.01,17.09-4.01
			c14.31,0,24.46,5.54,30.44,16.62c3.36-5.1,7.87-9.15,13.54-12.14c5.66-2.99,11.86-4.48,18.58-4.48c12.07,0,21.35,3.61,27.82,10.83
			c6.47,7.22,9.71,17.8,9.71,31.74v52.29h-23.9V84.4c0-7.97-1.53-14.07-4.58-18.3c-3.05-4.23-7.75-6.35-14.1-6.35
			c-6.47,0-11.67,2.37-15.59,7.1c-3.92,4.73-5.88,11.33-5.88,19.79v47.8h-23.9V84.4c0-7.97-1.56-14.07-4.67-18.3
			c-3.11-4.23-7.91-6.35-14.38-6.35c-6.35,0-11.48,2.37-15.41,7.1c-3.92,4.73-5.88,11.33-5.88,19.79v47.8H596.69z"/>
		<path class="st0" d="M784.54,27.45c-4.36,0-7.94-1.31-10.74-3.92s-4.2-5.91-4.2-9.9c0-3.98,1.4-7.25,4.2-9.8
			c2.8-2.55,6.38-3.83,10.74-3.83c4.36,0,7.94,1.28,10.74,3.83c2.8,2.55,4.2,5.82,4.2,9.8c0,3.99-1.4,7.28-4.2,9.9
			S788.9,27.45,784.54,27.45z M772.59,134.45V41.83h23.9v92.62H772.59z"/>
		<path class="st0" d="M815.54,134.45v-19.23l47.24-53.59H816.1V41.83h73.95v19.23l-47.99,53.59h48.92v19.79H815.54z"/>
		<path class="st0" d="M955.96,136.69c-9.34,0-17.62-1.99-24.83-5.98c-7.22-3.98-12.88-9.58-16.99-16.81
			c-4.11-7.22-6.16-15.56-6.16-25.02c0-9.58,2.02-18.11,6.07-25.58c4.04-7.47,9.65-13.29,16.81-17.46
			c7.16-4.17,15.59-6.26,25.3-6.26c9.09,0,17.12,1.99,24.09,5.98c6.97,3.99,12.42,9.43,16.34,16.34c3.92,6.91,5.88,14.6,5.88,23.06
			c0,1.37-0.03,2.8-0.09,4.29c-0.06,1.49-0.16,3.05-0.28,4.67h-70.4c0.5,7.22,3.02,12.88,7.56,16.99
			c4.54,4.11,10.05,6.16,16.53,6.16c4.85,0,8.93-1.09,12.23-3.27c3.3-2.18,5.76-5.01,7.38-8.5h24.28
			c-1.75,5.85-4.64,11.17-8.68,15.97c-4.05,4.79-9.03,8.56-14.94,11.3C970.12,135.32,963.43,136.69,955.96,136.69z M956.15,59.01
			c-5.85,0-11.02,1.65-15.5,4.95c-4.48,3.3-7.35,8.31-8.59,15.03h46.12c-0.37-6.1-2.61-10.95-6.72-14.56
			C967.35,60.81,962.25,59.01,956.15,59.01z"/>
	</g>
	<g>
		<path class="st0" d="M537.83,155.19l6.35,35.6h-4.85l-1.7-10.85h-14.95l-6.3,10.85h-5.35l21.5-35.6H537.83z M537.03,176.19
			l-2.65-16.55l-9.55,16.55H537.03z"/>
		<path class="st0" d="M591.53,165.64h-4.5c0.03-0.17,0.05-0.37,0.05-0.6c0-4.43-2.75-6.65-8.25-6.65c-2.57,0-4.6,0.54-6.1,1.63
			c-1.5,1.08-2.25,2.56-2.25,4.43c0,0.43,0.05,0.83,0.15,1.2c0.1,0.37,0.21,0.69,0.33,0.98c0.12,0.28,0.33,0.57,0.65,0.85
			c0.32,0.28,0.56,0.52,0.73,0.7c0.17,0.18,0.47,0.38,0.92,0.58s0.77,0.35,0.95,0.45c0.18,0.1,0.55,0.23,1.1,0.4
			c0.55,0.17,0.9,0.27,1.05,0.3c0.15,0.03,0.53,0.13,1.13,0.3c0.6,0.17,0.93,0.25,1,0.25c1.03,0.27,1.83,0.47,2.38,0.63
			c0.55,0.15,1.28,0.38,2.2,0.7c0.92,0.32,1.63,0.63,2.13,0.93c0.5,0.3,1.08,0.7,1.73,1.2c0.65,0.5,1.14,1.03,1.47,1.6
			c0.33,0.57,0.62,1.26,0.85,2.08s0.35,1.71,0.35,2.67c0,3.8-1.35,6.63-4.05,8.5c-2.7,1.87-6.05,2.8-10.05,2.8
			c-4.23,0-7.54-1-9.92-3c-2.38-2-3.58-4.77-3.58-8.3c0-0.47,0.02-0.85,0.05-1.15h4.5v0.7c0,2.67,0.76,4.65,2.27,5.95
			s3.84,1.95,6.98,1.95c2.47,0,4.63-0.58,6.47-1.73c1.85-1.15,2.78-2.88,2.78-5.17c0-0.53-0.08-1.03-0.23-1.5
			c-0.15-0.47-0.32-0.87-0.5-1.2c-0.18-0.33-0.47-0.66-0.88-0.97c-0.4-0.32-0.73-0.56-1-0.73c-0.27-0.17-0.68-0.36-1.25-0.57
			c-0.57-0.22-0.99-0.37-1.27-0.45c-0.28-0.08-0.75-0.22-1.4-0.4c-0.65-0.18-1.08-0.31-1.28-0.38c-3.43-1-5.67-1.77-6.7-2.3
			c-3.03-1.57-4.55-4.02-4.55-7.35c0-3.2,1.16-5.73,3.48-7.6c2.32-1.87,5.47-2.8,9.47-2.8c3.97,0,7.06,0.88,9.28,2.65
			c2.22,1.77,3.33,4.23,3.33,7.4V165.64z"/>
		<path class="st0" d="M618.23,190.79h-4.5l-1.35-20.05l-9.3,20.05h-4.5l-3.1-25.8h4.55l1.65,20.5l9.35-20.5h4.8l1.3,20.5l9.85-20.5
			h4.6L618.23,190.79z"/>
		<path class="st0" d="M640.98,165.04l-5.45,25.75h-4.3l5.45-25.75H640.98z M643.03,155.19l-1.1,5.2h-4.3l1.1-5.2H643.03z"/>
		<path class="st0" d="M658.42,164.99l-0.75,3.55h-4.95l-4.75,22.25h-4.3l4.75-22.25h-4.35l0.75-3.55h4.35l0.2-1
			c0.33-1.6,0.63-2.84,0.9-3.73c0.27-0.88,0.7-1.81,1.3-2.77s1.41-1.67,2.42-2.1c1.02-0.43,2.29-0.65,3.83-0.65
			c1.23,0,2.33,0.13,3.3,0.4l-0.75,3.6c-0.67-0.2-1.35-0.3-2.05-0.3c-0.5,0-0.95,0.04-1.35,0.13c-0.4,0.08-0.75,0.24-1.05,0.47
			c-0.3,0.23-0.54,0.43-0.72,0.6c-0.18,0.17-0.36,0.48-0.53,0.93c-0.17,0.45-0.28,0.76-0.35,0.92c-0.07,0.17-0.17,0.56-0.33,1.17
			c-0.15,0.62-0.24,1.01-0.27,1.17l-0.3,1.15H658.42z"/>
		<path class="st0" d="M673.47,164.99l-0.75,3.55h-5.05l-3.35,15.8c-0.1,0.57-0.15,1.03-0.15,1.4c0,1.07,0.82,1.6,2.45,1.6
			c0.93,0,1.82-0.08,2.65-0.25l-0.8,3.65c-1.1,0.17-2.15,0.25-3.15,0.25c-3.73,0-5.6-1.33-5.6-4c0-0.57,0.23-2.02,0.7-4.35
			l2.95-14.1h-4.4l0.75-3.55h4.4l1.65-7.6h4.3l-1.65,7.6H673.47z"/>
		<path class="st0" d="M695.02,172.54h-4.2c-0.03-3.13-1.93-4.7-5.7-4.7c-1.6,0-2.88,0.32-3.82,0.95c-0.95,0.63-1.43,1.48-1.43,2.55
			c0,0.27,0.03,0.51,0.08,0.73s0.15,0.43,0.3,0.65c0.15,0.22,0.3,0.4,0.45,0.55c0.15,0.15,0.38,0.33,0.7,0.53
			c0.32,0.2,0.58,0.36,0.8,0.47c0.22,0.12,0.56,0.28,1.03,0.48c0.47,0.2,0.84,0.36,1.13,0.47c0.28,0.12,0.73,0.29,1.35,0.53
			c0.62,0.23,1.11,0.43,1.48,0.6c1.1,0.43,1.95,0.81,2.55,1.13c0.6,0.32,1.24,0.74,1.92,1.28c0.68,0.53,1.17,1.19,1.47,1.97
			c0.3,0.78,0.45,1.71,0.45,2.78c0,2.43-0.97,4.39-2.9,5.88c-1.93,1.48-4.48,2.22-7.65,2.22c-3.33,0-5.9-0.75-7.7-2.25
			s-2.7-3.65-2.7-6.45v-0.25h4.15v0.1c0,1.73,0.58,3.07,1.72,4c1.15,0.93,2.79,1.4,4.93,1.4c1.77,0,3.19-0.38,4.27-1.15
			s1.63-1.78,1.63-3.05c0-0.77-0.28-1.46-0.85-2.08c-0.57-0.62-1.1-1.04-1.6-1.28c-0.5-0.23-1.22-0.53-2.15-0.9
			c-0.13-0.07-0.53-0.23-1.2-0.48c-0.67-0.25-1.09-0.42-1.28-0.5c-0.18-0.08-0.57-0.25-1.17-0.5c-0.6-0.25-1.01-0.45-1.22-0.6
			c-0.22-0.15-0.57-0.38-1.05-0.67c-0.48-0.3-0.83-0.57-1.03-0.8c-0.2-0.23-0.46-0.53-0.78-0.9c-0.32-0.37-0.54-0.73-0.67-1.08
			c-0.13-0.35-0.26-0.76-0.38-1.22c-0.12-0.47-0.17-0.95-0.17-1.45c0-2.27,0.85-4.04,2.55-5.33s4.03-1.92,7-1.92
			c6.47,0,9.7,2.65,9.7,7.95V172.54z"/>
		<path class="st0" d="M713.27,164.99l-0.75,3.55h-5.05l-3.35,15.8c-0.1,0.57-0.15,1.03-0.15,1.4c0,1.07,0.82,1.6,2.45,1.6
			c0.93,0,1.82-0.08,2.65-0.25l-0.8,3.65c-1.1,0.17-2.15,0.25-3.15,0.25c-3.73,0-5.6-1.33-5.6-4c0-0.57,0.23-2.02,0.7-4.35
			l2.95-14.1h-4.4l0.75-3.55h4.4l1.65-7.6h4.3l-1.65,7.6H713.27z"/>
		<path class="st0" d="M715.67,172.74c0.4-2.73,1.54-4.82,3.42-6.25c1.88-1.43,4.46-2.15,7.73-2.15c2.93,0,5.22,0.53,6.88,1.58
			c1.65,1.05,2.47,2.51,2.47,4.38c0,0.77-0.2,2.02-0.6,3.75l-2.4,10.7c-0.13,0.57-0.2,1.13-0.2,1.7c0,0.93,0.45,1.4,1.35,1.4
			c0.3,0,0.72-0.07,1.25-0.2l-0.55,3.25c-0.9,0.3-1.78,0.45-2.65,0.45c-1.07,0-1.9-0.25-2.5-0.75c-0.6-0.5-0.9-1.2-0.9-2.1
			c0-0.3,0.02-0.58,0.05-0.85c-2.1,2.6-4.95,3.9-8.55,3.9c-2.57,0-4.57-0.63-6-1.9c-1.43-1.27-2.15-3.03-2.15-5.3
			c0-1.4,0.27-2.62,0.82-3.65c0.55-1.03,1.19-1.83,1.93-2.4c0.73-0.57,1.72-1.03,2.97-1.4c1.25-0.37,2.33-0.62,3.25-0.75
			c0.92-0.13,2.08-0.25,3.47-0.35c0.23-0.03,0.63-0.07,1.2-0.1c0.57-0.03,0.98-0.06,1.23-0.08s0.62-0.06,1.1-0.13
			c0.48-0.07,0.83-0.15,1.05-0.25c0.22-0.1,0.5-0.23,0.85-0.38c0.35-0.15,0.61-0.33,0.77-0.55s0.34-0.48,0.53-0.78
			c0.18-0.3,0.31-0.66,0.38-1.08c0.07-0.42,0.1-0.88,0.1-1.38c0-1.03-0.46-1.83-1.38-2.38s-2.21-0.83-3.88-0.83
			c-1.93,0-3.47,0.37-4.6,1.1c-1.13,0.73-1.93,1.98-2.4,3.75H715.67z M730.72,177.49c-0.67,0.77-2.62,1.25-5.85,1.45
			c-0.93,0.07-1.66,0.13-2.17,0.2c-0.52,0.07-1.22,0.21-2.1,0.43c-0.88,0.22-1.57,0.48-2.05,0.8c-0.48,0.32-0.92,0.79-1.33,1.42
			c-0.4,0.63-0.6,1.38-0.6,2.25c0,1.3,0.44,2.33,1.33,3.08c0.88,0.75,2.09,1.13,3.63,1.13c2.57,0,4.5-0.78,5.8-2.33
			s2.27-3.71,2.9-6.47L730.72,177.49z"/>
		<path class="st0" d="M757.87,164.44l-1,4.5c-0.47-0.07-0.97-0.1-1.5-0.1c-2.97,0-5.19,0.96-6.67,2.88
			c-1.48,1.92-2.58,4.46-3.28,7.63l-2.5,11.45h-4.3l5.5-25.8h4l-1.25,5.5c2.33-4.1,5.47-6.15,9.4-6.15
			C756.87,164.34,757.41,164.38,757.87,164.44z"/>
		<path class="st0" d="M771.62,164.99l-0.75,3.55h-5.05l-3.35,15.8c-0.1,0.57-0.15,1.03-0.15,1.4c0,1.07,0.82,1.6,2.45,1.6
			c0.93,0,1.82-0.08,2.65-0.25l-0.8,3.65c-1.1,0.17-2.15,0.25-3.15,0.25c-3.73,0-5.6-1.33-5.6-4c0-0.57,0.23-2.02,0.7-4.35
			l2.95-14.1h-4.4l0.75-3.55h4.4l1.65-7.6h4.3l-1.65,7.6H771.62z"/>
		<path class="st0" d="M817.97,178.69c-0.9,4.03-2.77,7.2-5.63,9.5c-2.85,2.3-6.36,3.45-10.52,3.45c-4.57,0-8.15-1.38-10.75-4.13
			c-2.6-2.75-3.9-6.54-3.9-11.38c0-3.9,0.76-7.48,2.28-10.75c1.52-3.27,3.78-5.92,6.8-7.97c3.02-2.05,6.49-3.08,10.42-3.08
			c3.97,0,7.16,1.07,9.58,3.2c2.42,2.13,3.63,4.95,3.63,8.45v0.6h-4.6c-0.13-2.9-0.94-5-2.42-6.3s-3.72-1.95-6.72-1.95
			c-2.97,0-5.57,0.92-7.8,2.75c-2.23,1.83-3.87,4.08-4.9,6.73c-1.03,2.65-1.55,5.42-1.55,8.32c0,3.47,0.86,6.25,2.58,8.35
			c1.72,2.1,4.24,3.15,7.57,3.15c2.83,0,5.22-0.77,7.15-2.32c1.93-1.55,3.27-3.76,4-6.63H817.97z"/>
		<path class="st0" d="M836.52,164.19c3.4,0,6.06,0.92,7.98,2.75c1.92,1.83,2.88,4.47,2.88,7.9c0,4.57-1.33,8.5-3.98,11.8
			c-2.65,3.3-6.16,4.95-10.52,4.95c-3.43,0-6.09-0.97-7.98-2.9s-2.82-4.67-2.82-8.2c0-4.43,1.33-8.26,4-11.48
			C828.74,165.8,832.22,164.19,836.52,164.19z M833.32,188.09c2.7,0,4.99-1.27,6.88-3.83c1.88-2.55,2.82-5.64,2.82-9.27
			c0-2.33-0.58-4.13-1.75-5.4c-1.17-1.27-2.82-1.9-4.95-1.9c-2.07,0-3.88,0.67-5.45,2c-1.57,1.33-2.72,2.94-3.45,4.82
			c-0.73,1.88-1.1,3.84-1.1,5.88c0,2.43,0.62,4.33,1.85,5.68C829.4,187.42,831.12,188.09,833.32,188.09z"/>
		<path class="st0" d="M859.07,164.99l-0.9,4c1.03-1.4,2.38-2.53,4.05-3.4c1.67-0.87,3.4-1.3,5.2-1.3c1.77,0,3.22,0.42,4.35,1.28
			c1.13,0.85,1.78,2.01,1.95,3.47c2.53-3.03,5.58-4.55,9.15-4.55c2.17,0,3.88,0.53,5.15,1.6c1.27,1.07,1.9,2.5,1.9,4.3
			c0,1.03-0.12,2.07-0.35,3.1l-3.7,17.3h-4.3l3.25-15.3c0.4-1.83,0.6-3.2,0.6-4.1c0-1.03-0.34-1.83-1.03-2.4
			c-0.68-0.57-1.64-0.85-2.88-0.85c-2.03,0-3.85,0.77-5.45,2.3c-1.6,1.53-2.68,3.67-3.25,6.4l-2.9,13.95h-4.35l3.25-15.25
			c0.47-2.2,0.7-3.63,0.7-4.3c0-1-0.32-1.78-0.95-2.35c-0.63-0.57-1.5-0.85-2.6-0.85c-2.23,0-4.17,0.78-5.8,2.35
			c-1.63,1.57-2.7,3.53-3.2,5.9l-3.05,14.5h-4.35l5.5-25.8H859.07z"/>
		<path class="st0" d="M901.62,164.99l-0.8,3.65c2.23-2.87,5.15-4.3,8.75-4.3c3.03,0,5.43,0.98,7.2,2.95
			c1.77,1.97,2.65,4.65,2.65,8.05c0,4.47-1.23,8.28-3.7,11.42c-2.47,3.15-5.83,4.73-10.1,4.73c-4.47,0-7.23-1.68-8.3-5.05l-3,14.3
			h-4.25l7.6-35.75H901.62z M908.27,167.79c-2.1,0-3.91,0.76-5.42,2.28c-1.52,1.52-2.59,3.27-3.23,5.25s-0.95,3.97-0.95,5.97
			c0,2.07,0.63,3.72,1.88,4.95s2.92,1.85,5.02,1.85c2.67,0,4.92-1.24,6.78-3.72c1.85-2.48,2.77-5.54,2.77-9.17
			c0-2.37-0.59-4.19-1.77-5.48C912.16,168.44,910.47,167.79,908.27,167.79z"/>
		<path class="st0" d="M924.97,172.74c0.4-2.73,1.54-4.82,3.42-6.25c1.88-1.43,4.46-2.15,7.73-2.15c2.93,0,5.22,0.53,6.88,1.58
			c1.65,1.05,2.47,2.51,2.47,4.38c0,0.77-0.2,2.02-0.6,3.75l-2.4,10.7c-0.13,0.57-0.2,1.13-0.2,1.7c0,0.93,0.45,1.4,1.35,1.4
			c0.3,0,0.72-0.07,1.25-0.2l-0.55,3.25c-0.9,0.3-1.78,0.45-2.65,0.45c-1.07,0-1.9-0.25-2.5-0.75s-0.9-1.2-0.9-2.1
			c0-0.3,0.02-0.58,0.05-0.85c-2.1,2.6-4.95,3.9-8.55,3.9c-2.57,0-4.57-0.63-6-1.9c-1.43-1.27-2.15-3.03-2.15-5.3
			c0-1.4,0.27-2.62,0.83-3.65c0.55-1.03,1.19-1.83,1.92-2.4c0.73-0.57,1.72-1.03,2.97-1.4c1.25-0.37,2.33-0.62,3.25-0.75
			c0.92-0.13,2.08-0.25,3.48-0.35c0.23-0.03,0.63-0.07,1.2-0.1s0.98-0.06,1.23-0.08s0.62-0.06,1.1-0.13
			c0.48-0.07,0.83-0.15,1.05-0.25c0.22-0.1,0.5-0.23,0.85-0.38c0.35-0.15,0.61-0.33,0.77-0.55s0.34-0.48,0.53-0.78
			c0.18-0.3,0.31-0.66,0.38-1.08c0.07-0.42,0.1-0.88,0.1-1.38c0-1.03-0.46-1.83-1.38-2.38s-2.21-0.83-3.88-0.83
			c-1.93,0-3.47,0.37-4.6,1.1c-1.13,0.73-1.93,1.98-2.4,3.75H924.97z M940.02,177.49c-0.67,0.77-2.62,1.25-5.85,1.45
			c-0.93,0.07-1.66,0.13-2.17,0.2c-0.52,0.07-1.22,0.21-2.1,0.43s-1.57,0.48-2.05,0.8c-0.48,0.32-0.92,0.79-1.33,1.42
			c-0.4,0.63-0.6,1.38-0.6,2.25c0,1.3,0.44,2.33,1.33,3.08c0.88,0.75,2.09,1.13,3.63,1.13c2.57,0,4.5-0.78,5.8-2.33
			s2.27-3.71,2.9-6.47L940.02,177.49z"/>
		<path class="st0" d="M957.17,164.99l-0.85,4.1c2.5-3.17,5.6-4.75,9.3-4.75c2.23,0,4.05,0.58,5.45,1.75c1.4,1.17,2.1,2.67,2.1,4.5
			c0,1.13-0.22,2.68-0.65,4.65l-3.3,15.55h-4.35l3.35-15.75c0.27-1.17,0.4-2.35,0.4-3.55c0-1.07-0.38-1.91-1.13-2.53
			c-0.75-0.62-1.79-0.92-3.13-0.92c-2.57,0-4.66,0.88-6.28,2.63s-2.69,3.96-3.22,6.63l-2.85,13.5h-4.3l5.45-25.8H957.17z"/>
		<path class="st0" d="M1001.17,164.99l-14.9,26.5c-1.6,2.8-2.78,4.73-3.55,5.8c-1.9,2.63-4.22,3.95-6.95,3.95
			c-0.87,0-1.88-0.17-3.05-0.5l0.85-3.6c1.1,0.33,1.95,0.5,2.55,0.5c0.5,0,0.96-0.08,1.38-0.25c0.42-0.17,0.83-0.47,1.22-0.9
			c0.4-0.43,0.69-0.78,0.88-1.03c0.18-0.25,0.48-0.7,0.88-1.35c0.4-0.65,0.63-1.03,0.7-1.13l1.4-2.2l-4.55-25.8h4.55l3.1,20.35
			l10.85-20.35H1001.17z"/>
	</g>
	<path class="st1" d="M110.39,118.1L72.96,15.56C70.3,8.25,63.35,3.39,55.57,3.39h0c-7.78,0-14.73,4.86-17.4,12.17L0.75,118.1
		c-2.9,7.94,2.98,16.34,11.43,16.34h0c5.11,0,9.68-3.2,11.43-8l31.95-87.56l31.95,87.56c1.75,4.8,6.32,8,11.43,8h0
		C107.4,134.45,113.28,126.04,110.39,118.1z"/>
</g>
</svg>
