<svg width="29" height="23" viewBox="0 0 29 23" fill="none" xmlns="http://www.w3.org/2000/svg">
<path d="M2.05094 10.8333H7.05094C7.96761 10.8333 8.71761 10.0833 8.71761 9.16659V2.49992C8.71761 1.58325 7.96761 0.833252 7.05094 0.833252H2.05094C1.13428 0.833252 0.384277 1.58325 0.384277 2.49992V9.16659C0.384277 10.0833 1.13428 10.8333 2.05094 10.8333ZM2.05094 22.4999H7.05094C7.96761 22.4999 8.71761 21.7499 8.71761 20.8333V14.1666C8.71761 13.2499 7.96761 12.4999 7.05094 12.4999H2.05094C1.13428 12.4999 0.384277 13.2499 0.384277 14.1666V20.8333C0.384277 21.7499 1.13428 22.4999 2.05094 22.4999ZM12.0509 22.4999H17.0509C17.9676 22.4999 18.7176 21.7499 18.7176 20.8333V14.1666C18.7176 13.2499 17.9676 12.4999 17.0509 12.4999H12.0509C11.1343 12.4999 10.3843 13.2499 10.3843 14.1666V20.8333C10.3843 21.7499 11.1343 22.4999 12.0509 22.4999ZM22.0509 22.4999H27.0509C27.9676 22.4999 28.7176 21.7499 28.7176 20.8333V14.1666C28.7176 13.2499 27.9676 12.4999 27.0509 12.4999H22.0509C21.1343 12.4999 20.3843 13.2499 20.3843 14.1666V20.8333C20.3843 21.7499 21.1343 22.4999 22.0509 22.4999ZM12.0509 10.8333H17.0509C17.9676 10.8333 18.7176 10.0833 18.7176 9.16659V2.49992C18.7176 1.58325 17.9676 0.833252 17.0509 0.833252H12.0509C11.1343 0.833252 10.3843 1.58325 10.3843 2.49992V9.16659C10.3843 10.0833 11.1343 10.8333 12.0509 10.8333ZM20.3843 2.49992V9.16659C20.3843 10.0833 21.1343 10.8333 22.0509 10.8333H27.0509C27.9676 10.8333 28.7176 10.0833 28.7176 9.16659V2.49992C28.7176 1.58325 27.9676 0.833252 27.0509 0.833252H22.0509C21.1343 0.833252 20.3843 1.58325 20.3843 2.49992Z" fill="#4D88FF"/>
</svg>
