<svg width="34" height="31" viewBox="0 0 34 31" fill="none" xmlns="http://www.w3.org/2000/svg">
<path d="M32.1525 15.8667C32.1525 6.71667 25.0525 0.5 17.1525 0.5C9.33584 0.5 2.15251 6.58333 2.15251 15.9667C1.15251 16.5333 0.48584 17.6 0.48584 18.8333V22.1667C0.48584 24 1.98584 25.5 3.81917 25.5C4.73584 25.5 5.48584 24.75 5.48584 23.8333V15.8167C5.48584 9.43333 10.4025 3.85 16.7858 3.66667C23.3858 3.46667 28.8192 8.76667 28.8192 15.3333V27.1667H17.1525C16.2358 27.1667 15.4858 27.9167 15.4858 28.8333C15.4858 29.75 16.2358 30.5 17.1525 30.5H28.8192C30.6525 30.5 32.1525 29 32.1525 27.1667V25.1333C33.1358 24.6167 33.8192 23.6 33.8192 22.4V18.5667C33.8192 17.4 33.1358 16.3833 32.1525 15.8667Z" fill="#4D88FF"/>
<path d="M12.1525 18.8333C13.073 18.8333 13.8192 18.0871 13.8192 17.1667C13.8192 16.2462 13.073 15.5 12.1525 15.5C11.232 15.5 10.4858 16.2462 10.4858 17.1667C10.4858 18.0871 11.232 18.8333 12.1525 18.8333Z" fill="#4D88FF"/>
<path d="M22.1525 18.8333C23.073 18.8333 23.8192 18.0871 23.8192 17.1667C23.8192 16.2462 23.073 15.5 22.1525 15.5C21.232 15.5 20.4858 16.2462 20.4858 17.1667C20.4858 18.0871 21.232 18.8333 22.1525 18.8333Z" fill="#4D88FF"/>
<path d="M27.1524 13.8833C26.3524 9.13333 22.219 5.5 17.2357 5.5C12.1857 5.5 6.75237 9.68333 7.18571 16.25C11.3024 14.5667 14.4024 10.9 15.2857 6.43333C17.469 10.8167 21.9524 13.8333 27.1524 13.8833Z" fill="#4D88FF"/>
</svg>
