<svg width="30" height="31" viewBox="0 0 30 31" fill="none" xmlns="http://www.w3.org/2000/svg">
<path d="M26.6667 7.16667H10C8.16667 7.16667 6.66667 8.66667 6.66667 10.5V27.1667C6.66667 29 8.16667 30.5 10 30.5H26.6667C28.5 30.5 30 29 30 27.1667V10.5C30 8.66667 28.5 7.16667 26.6667 7.16667ZM26.6667 12.1667C26.6667 13.0833 25.9167 13.8333 25 13.8333H11.6667C10.75 13.8333 10 13.0833 10 12.1667C10 11.25 10.75 10.5 11.6667 10.5H25C25.9167 10.5 26.6667 11.25 26.6667 12.1667ZM16.6667 20.5V17.1667H20V20.5H16.6667ZM20 23.8333V27.1667H16.6667V23.8333H20ZM13.3333 20.5H10V17.1667H13.3333V20.5ZM23.3333 17.1667H26.6667V20.5H23.3333V17.1667ZM10 23.8333H13.3333V27.1667H10V23.8333ZM23.3333 27.1667V23.8333H26.6667V27.1667H23.3333ZM5 23.8333H3.33333C1.5 23.8333 0 22.3333 0 20.5V3.83333C0 2 1.5 0.5 3.33333 0.5H20C21.8333 0.5 23.3333 2 23.3333 3.83333V5.5H20V3.83333H3.33333V20.5H5V23.8333Z" fill="#4D88FF"/>
</svg>
