<svg width="41" height="41" viewBox="0 0 41 41" fill="none" xmlns="http://www.w3.org/2000/svg">
<path d="M19.5186 6.1667L13.3186 16.3C12.6353 17.4 13.4353 18.8334 14.7353 18.8334H27.1186C28.4186 18.8334 29.2186 17.4 28.5353 16.3L22.3519 6.1667C21.7019 5.10003 20.1686 5.10003 19.5186 6.1667Z" fill="#4D88FF"/>
<path d="M30.1018 37.1667C34.2439 37.1667 37.6018 33.8089 37.6018 29.6667C37.6018 25.5246 34.2439 22.1667 30.1018 22.1667C25.9597 22.1667 22.6018 25.5246 22.6018 29.6667C22.6018 33.8089 25.9597 37.1667 30.1018 37.1667Z" fill="#4D88FF"/>
<path d="M7.60173 36.3333H17.6017C18.5184 36.3333 19.2684 35.5833 19.2684 34.6667V24.6667C19.2684 23.75 18.5184 23 17.6017 23H7.60173C6.68506 23 5.93506 23.75 5.93506 24.6667V34.6667C5.93506 35.5833 6.68506 36.3333 7.60173 36.3333Z" fill="#4D88FF"/>
</svg>
