<svg width="30" height="31" viewBox="0 0 30 31" fill="none" xmlns="http://www.w3.org/2000/svg">
<path d="M26.6667 0.5H3.33333C1.48333 0.5 0 2 0 3.83333V27.1667C0 29 1.48333 30.5 3.33333 30.5H26.6667C28.5 30.5 30 29 30 27.1667V3.83333C30 2 28.5167 0.5 26.6667 0.5ZM26.6667 27.1667H3.33333V7.16667H26.6667V27.1667ZM21.6667 15.5H8.33333C7.41667 15.5 6.66667 14.75 6.66667 13.8333C6.66667 12.9167 7.41667 12.1667 8.33333 12.1667H21.6667C22.5833 12.1667 23.3333 12.9167 23.3333 13.8333C23.3333 14.75 22.5833 15.5 21.6667 15.5ZM15 22.1667H8.33333C7.41667 22.1667 6.66667 21.4167 6.66667 20.5C6.66667 19.5833 7.41667 18.8333 8.33333 18.8333H15C15.9167 18.8333 16.6667 19.5833 16.6667 20.5C16.6667 21.4167 15.9167 22.1667 15 22.1667Z" fill="#4D88FF"/>
</svg>
