<svg width="29" height="23" viewBox="0 0 29 23" fill="none" xmlns="http://www.w3.org/2000/svg">
<path d="M12.2685 22.4999H17.2685C18.1851 22.4999 18.9351 21.7499 18.9351 20.8333V14.1666C18.9351 13.2499 18.1851 12.4999 17.2685 12.4999H12.2685C11.3518 12.4999 10.6018 13.2499 10.6018 14.1666V20.8333C10.6018 21.7499 11.3518 22.4999 12.2685 22.4999ZM2.26847 22.4999H7.26847C8.18514 22.4999 8.93514 21.7499 8.93514 20.8333V2.49992C8.93514 1.58325 8.18514 0.833252 7.26847 0.833252H2.26847C1.35181 0.833252 0.601807 1.58325 0.601807 2.49992V20.8333C0.601807 21.7499 1.35181 22.4999 2.26847 22.4999ZM22.2685 22.4999H27.2685C28.1851 22.4999 28.9351 21.7499 28.9351 20.8333V14.1666C28.9351 13.2499 28.1851 12.4999 27.2685 12.4999H22.2685C21.3518 12.4999 20.6018 13.2499 20.6018 14.1666V20.8333C20.6018 21.7499 21.3518 22.4999 22.2685 22.4999ZM10.6018 2.49992V9.16659C10.6018 10.0833 11.3518 10.8333 12.2685 10.8333H27.2685C28.1851 10.8333 28.9351 10.0833 28.9351 9.16659V2.49992C28.9351 1.58325 28.1851 0.833252 27.2685 0.833252H12.2685C11.3518 0.833252 10.6018 1.58325 10.6018 2.49992Z" fill="#4D88FF"/>
</svg>
