<svg width="38" height="27" viewBox="0 0 38 27" fill="none" xmlns="http://www.w3.org/2000/svg">
<path d="M31.5001 6.83341H27.3334V3.50008C27.3334 1.66675 25.8334 0.166748 24.0001 0.166748H4.00008C2.16675 0.166748 0.666748 1.66675 0.666748 3.50008V18.5001C0.666748 20.3334 2.16675 21.8334 4.00008 21.8334C4.00008 24.6001 6.23341 26.8334 9.00008 26.8334C11.7667 26.8334 14.0001 24.6001 14.0001 21.8334H24.0001C24.0001 24.6001 26.2334 26.8334 29.0001 26.8334C31.7667 26.8334 34.0001 24.6001 34.0001 21.8334H35.6667C36.5834 21.8334 37.3334 21.0834 37.3334 20.1667V14.6167C37.3334 13.9001 37.1001 13.2001 36.6667 12.6167L32.8334 7.50008C32.5167 7.08341 32.0167 6.83341 31.5001 6.83341ZM9.00008 23.5001C8.08341 23.5001 7.33341 22.7501 7.33341 21.8334C7.33341 20.9167 8.08341 20.1667 9.00008 20.1667C9.91675 20.1667 10.6667 20.9167 10.6667 21.8334C10.6667 22.7501 9.91675 23.5001 9.00008 23.5001ZM31.5001 9.33341L34.7667 13.5001H27.3334V9.33341H31.5001ZM29.0001 23.5001C28.0834 23.5001 27.3334 22.7501 27.3334 21.8334C27.3334 20.9167 28.0834 20.1667 29.0001 20.1667C29.9167 20.1667 30.6667 20.9167 30.6667 21.8334C30.6667 22.7501 29.9167 23.5001 29.0001 23.5001Z" fill="#4D88FF"/>
</svg>
