<svg width="187" height="39" viewBox="0 0 187 39" fill="none" xmlns="http://www.w3.org/2000/svg">
<path d="M2.13266 38.0623C1.58782 38.0623 1.04299 37.8561 0.62497 37.4388C-0.20637 36.6091 -0.20637 35.259 0.62497 34.4292L13.964 21.1156C14.7531 20.3281 16.0306 20.2015 16.8901 20.9094C17.8765 21.7204 17.9281 23.1783 17.0451 24.0596L3.64034 37.4342C3.22232 37.8514 2.67749 38.0623 2.13266 38.0623Z" fill="white"/>
<path d="M4.82882 26.1973C4.30747 26.1973 3.78612 26.0051 3.37749 25.6254C2.48979 24.8003 2.53676 23.3471 3.39628 22.4892L11.3339 14.5667C12.2122 13.6853 13.6777 13.7369 14.4902 14.7214C15.1994 15.5792 15.0726 16.8543 14.2836 17.6419L6.3412 25.5738C5.92318 25.9863 5.37835 26.1973 4.82882 26.1973Z" fill="white"/>
<path d="M19.3565 0.0623322H11.555C10.4419 0.0623322 9.44612 0.873336 9.3381 1.97968C9.21598 3.25009 10.2117 4.31893 11.4611 4.31893H12.6588L0.625459 16.334C-0.205882 17.1637 -0.205882 18.5138 0.625459 19.3436C1.04348 19.7608 1.58831 19.9671 2.13314 19.9671C2.67798 19.9671 3.22281 19.7608 3.64083 19.3436L15.6788 7.32855V8.43489C15.6788 9.54592 16.4914 10.5398 17.5998 10.6476C18.8727 10.7695 19.9436 9.77563 19.9436 8.52865V0.648318C19.9436 0.324854 19.6805 0.0623322 19.3565 0.0623322Z" fill="white"/>
<path d="M42.3189 19.9577C41.9666 19.3858 41.6332 18.9358 41.3185 18.617C41.0038 18.2935 40.4308 17.7825 39.6135 17.0794L36.9598 14.8339C35.4568 13.5822 34.71 12.504 34.71 11.6039C34.71 9.47561 36.1238 8.40677 38.9466 8.40677C40.3556 8.40677 41.7365 8.90369 43.0986 9.89752L44.5076 5.33152C43.9816 5.08775 43.061 4.86742 41.7459 4.67522C40.4308 4.48301 39.3552 4.38457 38.5098 4.38457C35.9641 4.38457 33.9069 5.07369 32.3381 6.45661C30.7647 7.83954 29.9803 9.71001 29.9803 12.0727C29.9803 12.6821 30.0601 13.2728 30.2245 13.8447C30.3889 14.4166 30.6332 14.9792 30.9619 15.523C31.2907 16.0668 31.6054 16.4934 31.9013 16.7934C32.2019 17.0981 32.7702 17.5903 33.6157 18.2701L36.3774 20.464C37.8804 21.636 38.6272 22.7048 38.6272 23.6752C38.6272 24.6597 38.2139 25.4144 37.3872 25.9488C36.5606 26.4833 35.5179 26.7458 34.2638 26.7458C32.1878 26.7458 30.3654 26.1551 28.7967 24.9738L28.1063 24.4534L27.4111 29.5023C29.4637 30.4961 31.5537 30.9789 33.8646 30.9789C36.678 30.9789 38.9654 30.3179 40.7314 28.996C42.4974 27.674 43.3804 25.8363 43.3804 23.483C43.3804 22.8736 43.2912 22.2782 43.1174 21.6922C42.9436 21.1063 42.6712 20.5343 42.3189 19.9577Z" fill="white"/>
<path d="M123.659 19.9577C123.306 19.3858 122.973 18.9358 122.658 18.617C122.344 18.2935 121.771 17.7825 120.953 17.0794L118.3 14.8339C116.797 13.5822 116.05 12.504 116.05 11.6039C116.05 9.47561 117.464 8.40677 120.286 8.40677C121.695 8.40677 123.076 8.90369 124.438 9.89752L125.847 5.33152C125.321 5.08775 124.401 4.86742 123.086 4.67522C121.771 4.48301 120.695 4.38457 119.85 4.38457C117.304 4.38457 115.247 5.07369 113.678 6.45661C112.105 7.83954 111.32 9.71001 111.32 12.0727C111.32 12.6821 111.4 13.2728 111.564 13.8447C111.729 14.4166 111.973 14.9792 112.302 15.523C112.631 16.0668 112.945 16.4934 113.241 16.7934C113.537 17.0934 114.11 17.5903 114.956 18.2701L117.717 20.464C119.22 21.636 119.967 22.7048 119.967 23.6752C119.967 24.6597 119.554 25.4144 118.727 25.9488C117.9 26.4833 116.858 26.7458 115.604 26.7458C113.528 26.7458 111.705 26.1551 110.137 24.9738L109.446 24.4534L108.751 29.5023C110.803 30.4961 112.894 30.9789 115.204 30.9789C118.018 30.9789 120.305 30.3179 122.071 28.996C123.837 27.674 124.72 25.8363 124.72 23.483C124.72 22.8736 124.631 22.2782 124.457 21.6922C124.274 21.1109 124.011 20.5343 123.659 19.9577Z" fill="white"/>
<path d="M61.7826 22.222L58.6686 11.7446H57.0858L50.6324 22.1001L48.7489 11.7446H44.2822L47.9927 30.8946H49.6131L56.6631 20.028L59.9509 30.8946H61.5337L71.8762 11.7446H67.2169L61.7826 22.222Z" fill="white"/>
<path d="M73.7173 11.7446L73.0645 15.2745H75.474L72.6277 30.543H77.0944L80.6076 11.7446H73.7173Z" fill="white"/>
<path d="M78.6583 8.44428C79.4427 8.44428 80.119 8.18176 80.6826 7.65671C81.2462 7.13167 81.5281 6.48005 81.5281 5.70655C81.5281 4.92367 81.2462 4.27206 80.6826 3.7517C80.119 3.23135 79.4474 2.96883 78.6583 2.96883C77.8598 2.96883 77.1835 3.23135 76.6292 3.7517C76.0703 4.27206 75.7932 4.92367 75.7932 5.70655C75.7932 6.48943 76.075 7.14104 76.6386 7.6614C77.2023 8.18175 77.8739 8.44428 78.6583 8.44428Z" fill="white"/>
<path d="M93.458 7.60045C94.139 7.60045 94.9516 7.81141 95.9004 8.23332L96.7787 4.79241C95.9238 4.2908 94.8858 4.03766 93.6647 4.03766C89.3718 4.03766 86.6241 6.60662 85.417 11.7445H82.815L82.0494 15.2745H84.891L81.9555 31.5649C81.8052 32.3853 81.3918 33.1166 80.7249 33.7589C80.0579 34.4011 79.3064 34.8183 78.4751 35.0058L79.4051 37.9217C81.2087 37.9123 82.7868 37.3263 84.1348 36.1684C85.4828 35.0105 86.3094 33.5338 86.6147 31.7431L89.4281 15.2792H93.5472L94.2987 11.7492H89.9683C90.6117 8.98338 91.7718 7.60045 93.458 7.60045Z" fill="white"/>
<path d="M104.73 6.0769L99.7002 7.90048L98.9627 11.7446H96.7834L96.0272 15.2745H98.2066L96.0789 24.7019C95.9755 25.1566 95.9192 25.6207 95.9192 26.0895C95.9192 27.5193 96.3513 28.6772 97.2202 29.5632C98.0891 30.4539 99.2352 30.8993 100.668 30.8993C102.847 30.8993 104.571 30.6836 105.839 30.2476V26.3004C104.374 26.9099 103.317 27.2146 102.673 27.2146C101.217 27.2146 100.494 26.5723 100.494 25.2832C100.494 24.8378 100.569 24.2846 100.724 23.6143L102.622 15.2745H107.812L108.568 11.7446H103.415L104.73 6.0769Z" fill="white"/>
<path d="M133.574 15.2745H138.764L139.52 11.7446H134.368L135.688 6.0769L130.657 7.90048L129.92 11.7446H127.74L126.984 15.2745H129.164L127.036 24.7019C126.933 25.1566 126.876 25.6207 126.876 26.0895C126.876 27.5193 127.308 28.6772 128.177 29.5632C129.046 30.4539 130.192 30.8993 131.625 30.8993C133.804 30.8993 135.528 30.6836 136.796 30.2476V26.3004C135.331 26.9099 134.274 27.2146 133.63 27.2146C132.174 27.2146 131.451 26.5723 131.451 25.2832C131.451 24.8378 131.526 24.2846 131.681 23.6143L133.574 15.2745Z" fill="white"/>
<path d="M157.251 12.2696C155.842 11.6836 153.55 11.393 150.374 11.393C147.082 11.393 144.353 12.6634 142.188 15.2089C140.023 17.7544 138.942 20.8109 138.942 24.3784C138.942 26.427 139.501 28.0256 140.624 29.1694C141.742 30.318 143.325 30.8899 145.363 30.8899C147.603 30.8899 149.473 30.1445 150.971 28.6584C151.37 29.9101 151.981 30.5383 152.798 30.5383H155.541C155.142 29.5773 154.945 27.8099 154.945 25.2363C154.945 24.7112 154.987 24.2284 155.067 23.7971L157.251 12.2696ZM149.82 24.9785C148.876 26.5348 147.772 27.313 146.504 27.313C144.513 27.313 143.512 26.3004 143.512 24.2753C143.512 21.8282 144.1 19.6671 145.269 17.7872C146.443 15.9074 148.012 14.9698 149.98 14.9698C150.717 14.9698 151.506 15.087 152.338 15.3214C151.605 20.2062 150.764 23.4221 149.82 24.9785Z" fill="white"/>
<path d="M165.01 13.3759L165.31 11.7446H160.895L157.377 30.543H161.792L163.779 19.9249C164.023 18.6498 164.62 17.5153 165.564 16.5262C166.508 15.537 167.546 15.0448 168.687 15.0448C169.486 15.0448 170.406 15.4292 171.449 16.2027L172.769 11.7258C171.524 11.5055 170.665 11.393 170.186 11.393C168.293 11.393 166.569 12.054 165.01 13.3759Z" fill="white"/>
<path d="M181.059 15.2745H186.249L187.005 11.7446H181.853L183.172 6.0769L178.142 7.90048L177.405 11.7446H175.225L174.469 15.2745H176.648L174.521 24.7019C174.417 25.1566 174.361 25.6207 174.361 26.0895C174.361 27.5193 174.793 28.6772 175.662 29.5632C176.531 30.4539 177.677 30.8993 179.11 30.8993C181.289 30.8993 183.013 30.6836 184.281 30.2476V26.3004C182.815 26.9099 181.759 27.2146 181.115 27.2146C179.659 27.2146 178.936 26.5723 178.936 25.2832C178.936 24.8378 179.011 24.2846 179.166 23.6143L181.059 15.2745Z" fill="white"/>
</svg>
