<svg width="31" height="35" viewBox="0 0 31 35" fill="none" xmlns="http://www.w3.org/2000/svg">
<path d="M18.4859 12.4998H11.8193C10.9026 12.4998 10.1526 11.7498 10.1526 10.8332C10.1526 9.9165 10.9026 9.1665 11.8193 9.1665H18.4859C19.4026 9.1665 20.1526 9.9165 20.1526 10.8332C20.1526 11.7498 19.4026 12.4998 18.4859 12.4998Z" fill="#4D88FF"/>
<path d="M18.4859 17.4998H11.8193C10.9026 17.4998 10.1526 16.7498 10.1526 15.8332C10.1526 14.9165 10.9026 14.1665 11.8193 14.1665H18.4859C19.4026 14.1665 20.1526 14.9165 20.1526 15.8332C20.1526 16.7498 19.4026 17.4998 18.4859 17.4998Z" fill="#4D88FF"/>
<path d="M27.6526 3.33325L25.1526 0.833252L22.6526 3.33325L20.1526 0.833252L17.6526 3.33325L15.1526 0.833252L12.6526 3.33325L10.1526 0.833252L7.65259 3.33325L5.15259 0.833252V24.1666H1.81925C0.902588 24.1666 0.152588 24.9166 0.152588 25.8333V29.1666C0.152588 31.9333 2.38592 34.1666 5.15259 34.1666H25.1526C27.9193 34.1666 30.1526 31.9333 30.1526 29.1666V0.833252L27.6526 3.33325ZM20.1526 30.8333H5.15259C4.23592 30.8333 3.48592 30.0833 3.48592 29.1666V27.4999H8.48592H15.1526H20.1526V30.8333ZM26.8193 29.1666C26.8193 30.0833 26.0693 30.8333 25.1526 30.8333C24.2359 30.8333 23.4859 30.0833 23.4859 29.1666V25.8333C23.4859 24.9166 22.7359 24.1666 21.8193 24.1666H18.4859H15.1526H8.48592V5.83325H26.8193V29.1666Z" fill="#4D88FF"/>
<path d="M23.486 12.4998C24.4065 12.4998 25.1527 11.7536 25.1527 10.8332C25.1527 9.9127 24.4065 9.1665 23.486 9.1665C22.5655 9.1665 21.8193 9.9127 21.8193 10.8332C21.8193 11.7536 22.5655 12.4998 23.486 12.4998Z" fill="#4D88FF"/>
<path d="M23.486 17.4998C24.4065 17.4998 25.1527 16.7536 25.1527 15.8332C25.1527 14.9127 24.4065 14.1665 23.486 14.1665C22.5655 14.1665 21.8193 14.9127 21.8193 15.8332C21.8193 16.7536 22.5655 17.4998 23.486 17.4998Z" fill="#4D88FF"/>
</svg>
