<svg width="39" height="33" viewBox="0 0 39 33" fill="none" xmlns="http://www.w3.org/2000/svg">
<path d="M21.0193 0.9332L11.786 10.1665C11.1693 10.7832 10.8193 11.6332 10.8193 12.5165V29.1665C10.8193 30.9999 12.3193 32.4999 14.1527 32.4999H29.1527C30.486 32.4999 31.686 31.6999 32.2193 30.4832L37.6527 17.7999C39.0527 14.4999 36.636 10.8332 33.0527 10.8332H23.636L25.2193 3.19987C25.386 2.36653 25.136 1.51653 24.536 0.916534C23.5527 -0.0501332 21.986 -0.0501332 21.0193 0.9332ZM4.15267 32.4999C5.986 32.4999 7.486 30.9999 7.486 29.1665V15.8332C7.486 13.9999 5.986 12.4999 4.15267 12.4999C2.31934 12.4999 0.819336 13.9999 0.819336 15.8332V29.1665C0.819336 30.9999 2.31934 32.4999 4.15267 32.4999Z" fill="#4D88FF"/>
</svg>
