<svg width="32" height="29" viewBox="0 0 32 29" fill="none" xmlns="http://www.w3.org/2000/svg">
<path d="M16.0001 3.48322L28.5501 25.1666H3.45012L16.0001 3.48322ZM0.566787 23.4999C-0.716546 25.7166 0.883453 28.4999 3.45012 28.4999H28.5501C31.1168 28.4999 32.7168 25.7166 31.4335 23.4999L18.8835 1.81655C17.6001 -0.400114 14.4001 -0.400114 13.1168 1.81655L0.566787 23.4999ZM14.3335 11.8332V15.1666C14.3335 16.0832 15.0835 16.8332 16.0001 16.8332C16.9168 16.8332 17.6668 16.0832 17.6668 15.1666V11.8332C17.6668 10.9166 16.9168 10.1666 16.0001 10.1666C15.0835 10.1666 14.3335 10.9166 14.3335 11.8332ZM14.3335 20.1666H17.6668V23.4999H14.3335V20.1666Z" fill="#4D88FF"/>
</svg>
