<svg width="28" height="35" viewBox="0 0 28 35" fill="none" xmlns="http://www.w3.org/2000/svg">
<path d="M13.9351 4.16664V1.1833C13.9351 0.433303 13.0351 0.0666361 12.5185 0.599969L7.85181 5.24997C7.51847 5.5833 7.51847 6.09997 7.85181 6.4333L12.5018 11.0833C13.0351 11.6 13.9351 11.2333 13.9351 10.4833V7.49997C19.4518 7.49997 23.9351 11.9833 23.9351 17.5C23.9351 18.8166 23.6851 20.1 23.2018 21.25C22.9518 21.85 23.1351 22.5333 23.5851 22.9833C24.4351 23.8333 25.8685 23.5333 26.3185 22.4166C26.9351 20.9 27.2685 19.2333 27.2685 17.5C27.2685 10.1333 21.3018 4.16664 13.9351 4.16664ZM13.9351 27.5C8.41847 27.5 3.93514 23.0166 3.93514 17.5C3.93514 16.1833 4.18514 14.9 4.66847 13.75C4.91847 13.15 4.73514 12.4666 4.28514 12.0166C3.43514 11.1666 2.00181 11.4666 1.55181 12.5833C0.93514 14.1 0.601807 15.7666 0.601807 17.5C0.601807 24.8666 6.56847 30.8333 13.9351 30.8333V33.8166C13.9351 34.5666 14.8351 34.9333 15.3518 34.4L20.0018 29.75C20.3351 29.4166 20.3351 28.9 20.0018 28.5666L15.3518 23.9166C14.8351 23.4 13.9351 23.7666 13.9351 24.5166V27.5Z" fill="#4D88FF"/>
</svg>
