<svg width="41" height="41" viewBox="0 0 41 41" fill="none" xmlns="http://www.w3.org/2000/svg">
<path d="M26.5507 23.8332H25.234L24.7674 23.3832C26.7674 21.0498 27.8007 17.8665 27.234 14.4832C26.4507 9.84982 22.584 6.14982 17.9174 5.58316C10.8674 4.71649 4.93402 10.6498 5.80068 17.6998C6.36735 22.3665 10.0674 26.2332 14.7007 27.0165C18.084 27.5832 21.2674 26.5498 23.6007 24.5498L24.0507 25.0165V26.3332L31.134 33.4165C31.8174 34.0998 32.934 34.0998 33.6173 33.4165C34.3007 32.7332 34.3007 31.6165 33.6173 30.9332L26.5507 23.8332ZM16.5507 23.8332C12.4007 23.8332 9.05068 20.4832 9.05068 16.3332C9.05068 12.1832 12.4007 8.83316 16.5507 8.83316C20.7007 8.83316 24.0507 12.1832 24.0507 16.3332C24.0507 20.4832 20.7007 23.8332 16.5507 23.8332Z" fill="#4D88FF"/>
</svg>
