<svg width="31" height="35" viewBox="0 0 31 35" fill="none" xmlns="http://www.w3.org/2000/svg">
<path d="M26.9989 7.33325C26.9722 7.18742 26.8495 7.07284 26.7001 7.05721C26.5827 7.03638 23.9418 6.85929 23.9418 6.85929L21.9304 4.89575C21.749 4.69784 21.3489 4.75513 21.1941 4.79679C21.1728 4.79679 20.794 4.91659 20.1698 5.10929C19.5616 3.39575 18.4892 1.82284 16.5952 1.82284H16.4351C15.8909 1.14575 15.224 0.833252 14.6638 0.833252C10.2569 0.854085 8.16018 6.21346 7.49861 8.95304L4.42018 9.87492C3.47584 10.1666 3.4385 10.1874 3.31579 11.0676L0.717529 30.6093L20.1751 34.1666L30.7175 31.9478C30.7175 31.927 27.0149 7.52075 26.9989 7.33325ZM16.2911 6.08846V6.26554L12.8872 7.28638C13.5541 4.85929 14.7812 3.66138 15.8482 3.20825C16.1737 4.13534 16.3231 5.10929 16.2911 6.08846ZM14.5411 2.01034C14.7438 2.02075 14.9413 2.07804 15.1066 2.19263C13.6875 2.83846 12.1883 4.46867 11.5427 7.72909L8.85375 8.53638C9.61136 6.05721 11.3827 2.01034 14.5411 2.01034ZM15.2827 16.526C14.4931 16.151 13.6288 15.953 12.7485 15.9374C10.6944 15.9374 10.593 17.1926 10.593 17.5103C10.593 19.2291 15.2027 19.8853 15.2027 23.9322C15.2027 27.1145 13.1273 29.1562 10.3476 29.1562C7.00777 29.1562 5.29516 27.1301 5.29516 27.1301L6.18614 24.2395C6.18614 24.2395 7.9361 25.7135 9.42462 25.7135C10.1502 25.7395 10.7638 25.1874 10.7904 24.4791C10.7904 24.4583 10.7904 24.4374 10.7904 24.4166C10.7904 22.1562 7.00777 22.0572 7.00777 18.3645C7.00777 15.2603 9.30191 12.2343 13.9062 12.2343C15.7149 12.2603 16.5845 12.7499 16.5845 12.7499H16.5898L15.2827 16.526ZM19.0867 5.44784C18.5959 5.60409 18.041 5.76034 17.4381 5.94263V5.58846C17.4541 4.70304 17.3208 3.82284 17.038 2.98429C18.025 3.13013 18.6866 4.20825 19.0867 5.44784Z" fill="#4D88FF"/>
</svg>
