<?xml version="1.0" encoding="utf-8"?>
<!-- Generator: Adobe Illustrator 24.1.2, SVG Export Plug-In . SVG Version: 6.00 Build 0)  -->
<svg version="1.1" id="Layer_1" xmlns="http://www.w3.org/2000/svg" xmlns:xlink="http://www.w3.org/1999/xlink" x="0px" y="0px"
	 viewBox="0 0 1002.46 136.69" style="enable-background:new 0 0 1002.46 136.69;" xml:space="preserve">
<style type="text/css">
	.st0{fill:#000022;}
	<!-- .st0{fill:#ffffff;} -->
	.st1{fill:#2832EE;}
</style>
<g>
	<g>
		<path class="st0" d="M156.95,134.45l47.8-130.71h26.89l47.8,130.71h-25.4l-10.46-30.25h-50.98l-10.64,30.25H156.95z M199.15,85.52
			h37.91l-19.05-54.34L199.15,85.52z"/>
		<path class="st0" d="M328.55,136.69c-11.58,0-20.51-3.61-26.8-10.83c-6.29-7.22-9.43-17.8-9.43-31.74V41.83h23.71v50.04
			c0,7.97,1.62,14.07,4.85,18.3c3.24,4.23,8.34,6.35,15.31,6.35c6.6,0,12.04-2.36,16.34-7.1c4.29-4.73,6.44-11.33,6.44-19.79v-47.8
			h23.9v92.62h-21.1l-1.87-15.69c-2.87,5.48-7,9.84-12.42,13.07C342.09,135.07,335.77,136.69,328.55,136.69z"/>
		<path class="st0" d="M448.62,134.45c-9.71,0-17.49-2.36-23.34-7.1c-5.85-4.73-8.78-13.13-8.78-25.21V61.81h-15.87V41.83h15.87
			l2.8-24.83h21.1v24.83h25.02v19.98H440.4v40.52c0,4.48,0.96,7.56,2.89,9.24c1.93,1.68,5.26,2.52,9.99,2.52h11.58v20.35H448.62z"/>
		<path class="st0" d="M527.98,136.69c-8.96,0-17.02-2.05-24.18-6.16c-7.16-4.11-12.82-9.8-16.99-17.09
			c-4.17-7.28-6.26-15.71-6.26-25.3c0-9.58,2.12-18.02,6.35-25.3c4.23-7.28,9.93-12.98,17.09-17.09c7.16-4.11,15.22-6.16,24.18-6.16
			c8.84,0,16.84,2.05,23.99,6.16c7.16,4.11,12.82,9.8,16.99,17.09c4.17,7.28,6.25,15.72,6.25,25.3c0,9.59-2.09,18.02-6.25,25.3
			c-4.17,7.28-9.87,12.98-17.09,17.09C544.85,134.63,536.82,136.69,527.98,136.69z M527.98,115.96c6.22,0,11.64-2.33,16.25-7
			c4.6-4.67,6.91-11.61,6.91-20.82c0-9.21-2.31-16.15-6.91-20.82c-4.61-4.67-9.96-7-16.06-7c-6.35,0-11.8,2.33-16.34,7
			c-4.55,4.67-6.82,11.61-6.82,20.82c0,9.21,2.27,16.15,6.82,20.82C516.37,113.63,521.75,115.96,527.98,115.96z"/>
		<path class="st0" d="M596.69,134.45V41.83h21.1l2.05,12.51c2.99-4.48,6.94-8.06,11.86-10.74c4.92-2.68,10.61-4.01,17.09-4.01
			c14.31,0,24.46,5.54,30.44,16.62c3.36-5.1,7.87-9.15,13.54-12.14c5.66-2.99,11.86-4.48,18.58-4.48c12.07,0,21.35,3.61,27.82,10.83
			c6.47,7.22,9.71,17.8,9.71,31.74v52.29h-23.9V84.4c0-7.97-1.53-14.07-4.58-18.3c-3.05-4.23-7.75-6.35-14.1-6.35
			c-6.47,0-11.67,2.37-15.59,7.1c-3.92,4.73-5.88,11.33-5.88,19.79v47.8h-23.9V84.4c0-7.97-1.56-14.07-4.67-18.3
			c-3.11-4.23-7.91-6.35-14.38-6.35c-6.35,0-11.48,2.37-15.41,7.1c-3.92,4.73-5.88,11.33-5.88,19.79v47.8H596.69z"/>
		<path class="st0" d="M784.54,27.45c-4.36,0-7.94-1.31-10.74-3.92s-4.2-5.91-4.2-9.9c0-3.98,1.4-7.25,4.2-9.8
			c2.8-2.55,6.38-3.83,10.74-3.83c4.36,0,7.94,1.28,10.74,3.83c2.8,2.55,4.2,5.82,4.2,9.8c0,3.99-1.4,7.28-4.2,9.9
			S788.9,27.45,784.54,27.45z M772.59,134.45V41.83h23.9v92.62H772.59z"/>
		<path class="st0" d="M815.54,134.45v-19.23l47.24-53.59H816.1V41.83h73.95v19.23l-47.99,53.59h48.92v19.79H815.54z"/>
		<path class="st0" d="M955.96,136.69c-9.34,0-17.62-1.99-24.83-5.98c-7.22-3.98-12.88-9.58-16.99-16.81
			c-4.11-7.22-6.16-15.56-6.16-25.02c0-9.58,2.02-18.11,6.07-25.58c4.04-7.47,9.65-13.29,16.81-17.46
			c7.16-4.17,15.59-6.26,25.3-6.26c9.09,0,17.12,1.99,24.09,5.98c6.97,3.99,12.42,9.43,16.34,16.34c3.92,6.91,5.88,14.6,5.88,23.06
			c0,1.37-0.03,2.8-0.09,4.29c-0.06,1.49-0.16,3.05-0.28,4.67h-70.4c0.5,7.22,3.02,12.88,7.56,16.99
			c4.54,4.11,10.05,6.16,16.53,6.16c4.85,0,8.93-1.09,12.23-3.27c3.3-2.18,5.76-5.01,7.38-8.5h24.28
			c-1.75,5.85-4.64,11.17-8.68,15.97c-4.05,4.79-9.03,8.56-14.94,11.3C970.12,135.32,963.43,136.69,955.96,136.69z M956.15,59.01
			c-5.85,0-11.02,1.65-15.5,4.95c-4.48,3.3-7.35,8.31-8.59,15.03h46.12c-0.37-6.1-2.61-10.95-6.72-14.56
			C967.35,60.81,962.25,59.01,956.15,59.01z"/>
	</g>
	<path class="st1" d="M110.39,118.1L72.96,15.56C70.3,8.25,63.35,3.39,55.57,3.39h0c-7.78,0-14.73,4.86-17.4,12.17L0.75,118.1
		c-2.9,7.94,2.98,16.34,11.43,16.34h0c5.11,0,9.68-3.2,11.43-8l31.95-87.56l31.95,87.56c1.75,4.8,6.32,8,11.43,8h0
		C107.4,134.45,113.28,126.04,110.39,118.1z"/>
</g>
</svg>
