<svg width="155" height="44" viewBox="0 0 155 44" fill="none" xmlns="http://www.w3.org/2000/svg">
<path d="M18.2077 0.266961C18.7817 0.477294 19.2991 0.728075 19.76 1.0193C20.6493 1.59368 21.3446 2.18423 21.8458 2.79095L22.5977 3.75363C22.1369 4.28755 21.7973 4.68395 21.579 4.93473L21.102 4.12576C20.7786 3.59184 20.2774 3.09027 19.6064 2.62916C19.2506 2.37838 18.8383 2.16805 18.3775 1.98198C17.9167 1.83637 17.3992 1.77165 16.8252 1.77165C15.0062 1.77165 13.6479 2.37838 12.7586 3.59184C11.8693 4.80529 11.2387 6.221 10.883 7.82276C10.7051 8.71263 10.5757 9.59441 10.5111 10.4519C10.4383 11.3418 10.406 12.1669 10.406 12.9193H10.4626C13.9632 12.9193 16.5827 12.9193 18.3371 12.9193C18.3371 13.7444 18.3371 14.3512 18.3371 14.7395C14.8364 14.7395 12.2169 14.7395 10.4626 14.7395H10.406C10.406 15.3462 10.406 16.5597 10.406 18.3798C10.406 20.1677 10.406 22.2225 10.406 24.5442C10.406 25.7577 10.406 27.0116 10.406 28.2978C10.406 29.5841 10.406 30.8542 10.406 32.1C10.406 35.0285 10.406 37.5687 10.406 39.7124V42.9322C8.26352 42.9322 6.67083 42.9322 5.63599 42.9322C5.63599 30.3931 5.63599 21.0009 5.63599 14.7476C3.13781 14.7476 1.26216 14.7476 0.0090332 14.7476C0.0090332 13.9305 0.0090332 13.3157 0.0090332 12.9274C2.50721 12.9274 4.38286 12.9274 5.63599 12.9274C5.78151 10.5733 6.16958 8.60746 6.81636 7.02997C7.42271 5.49292 8.15842 4.2471 9.0154 3.27634C10.0502 2.13569 11.1417 1.35098 12.2816 0.922228C13.3892 0.461114 14.319 0.169884 15.0708 0.0647178C15.4751 0.0161794 15.7985 0 16.0168 0H16.3886C17.0354 0 17.6418 0.088987 18.2077 0.266961Z" fill="#BDBDBD"/>
<path d="M42.0818 11.7867C43.6179 12.2155 45.0247 12.8222 46.3101 13.6069C48.7032 15.0388 50.6274 16.9803 52.0907 19.4477C53.5864 21.9151 54.3383 24.6089 54.3383 27.5374C54.3383 29.1473 54.1038 30.6843 53.643 32.1486C53.2145 33.6128 52.592 34.9557 51.7673 36.1691C50.2717 38.5233 48.2505 40.4243 45.7119 41.8481C43.1733 43.28 40.3921 43.9919 37.3604 43.9919C34.3286 43.9919 31.5394 43.28 29.0089 41.8481C26.4703 40.4163 24.4572 38.5233 22.9534 36.1691C22.1692 34.9557 21.5467 33.6128 21.0778 32.1486C20.6493 30.6843 20.431 29.1473 20.431 27.5374C20.431 24.6089 21.1667 21.907 22.63 19.4477C24.0934 16.9803 26.0418 15.0388 28.4672 13.6069C29.7527 12.8222 31.1432 12.2155 32.647 11.7867C34.1427 11.358 35.7192 11.1395 37.3604 11.1395C39.0097 11.1476 40.5781 11.358 42.0818 11.7867ZM46.1485 37.9974C48.4364 35.2793 49.5764 31.8007 49.5764 27.5455C49.5764 23.2984 48.4364 19.8117 46.1485 17.0936C43.8605 14.3754 40.9338 13.0245 37.3685 13.0245C33.8354 13.0245 30.9088 14.3835 28.5885 17.0936C26.3005 19.8117 25.1606 23.2903 25.1606 27.5455C25.1606 31.8007 26.3005 35.2793 28.5885 37.9974C30.9088 40.7075 33.8354 42.0666 37.3685 42.0666C40.9419 42.0666 43.8686 40.7075 46.1485 37.9974Z" fill="#BDBDBD"/>
<path d="M99.3297 12.7575C100.583 13.1539 101.666 13.7202 102.596 14.4725C104.31 15.8639 105.49 17.7246 106.129 20.0463C106.768 22.4004 107.091 24.973 107.091 27.7639C107.091 27.8367 107.091 28.7994 107.091 30.66C107.091 32.553 107.091 34.5188 107.091 36.5575C107.091 38.2401 107.091 39.7205 107.091 41.0068V42.9888C104.916 42.9888 103.291 42.9888 102.216 42.9888V41.0068C102.216 39.7205 102.216 38.2401 102.216 36.5575C102.216 34.5188 102.216 32.553 102.216 30.66C102.216 28.7994 102.216 27.8367 102.216 27.7639C102.216 23.7272 101.731 20.4265 100.769 17.8459C99.8066 15.2734 97.8421 13.9871 94.875 13.9871C92.3768 13.9871 90.396 14.6505 88.9327 15.9691C87.4694 17.2877 86.2324 18.9866 85.238 21.0575C85.238 30.7733 85.238 38.0783 85.238 42.9726C83.0632 42.9726 81.4382 42.9726 80.3629 42.9726V40.9906C80.3629 39.7044 80.3629 38.2239 80.3629 36.5413C80.3629 34.5027 80.3629 32.5369 80.3629 30.6439C80.3629 28.7832 80.3629 27.8206 80.3629 27.7477C80.3629 23.711 79.8778 20.4104 78.9158 17.8297C77.9537 15.2572 75.9729 13.971 72.9735 13.971C70.5077 13.971 68.5431 14.6343 67.0798 15.9529C65.6164 17.2716 64.3795 18.9704 63.385 21.0414C63.385 30.7571 63.385 38.046 63.385 42.9079C61.2103 42.9079 59.5852 42.9079 58.51 42.9079C58.51 28.7994 58.51 18.2261 58.51 11.18C60.6524 11.18 62.2774 11.18 63.385 11.18C63.385 14.0761 63.385 16.2361 63.385 17.668C64.5654 16.0581 65.8832 14.7395 67.3466 13.704C68.8099 12.6281 70.6855 12.0941 72.9735 12.0941C76.1185 12.0941 78.56 12.7737 80.3144 14.1327C82.0607 15.4514 83.3139 17.223 84.0657 19.4396C84.3891 18.9057 84.6559 18.4769 84.8661 18.1533L85.1895 17.668C86.4022 16.0581 87.7443 14.7395 89.2076 13.704C90.6709 12.6281 92.5466 12.0941 94.8346 12.0941C96.5485 12.1103 98.0442 12.3287 99.3297 12.7575Z" fill="#BDBDBD"/>
<path d="M117.35 5.84078C117.205 6.16437 117.027 6.44751 116.817 6.69829C116.566 6.90862 116.283 7.09469 115.96 7.23221C115.637 7.37783 115.321 7.44254 114.998 7.44254C114.957 7.44254 114.909 7.44254 114.836 7.44254C114.585 7.41019 114.319 7.33738 114.036 7.23221C113.712 7.0866 113.446 6.90862 113.235 6.69829C112.985 6.44751 112.807 6.16437 112.702 5.84078C112.556 5.51719 112.492 5.1936 112.492 4.8781C112.492 4.5626 112.564 4.23901 112.702 3.91543C112.807 3.59184 112.985 3.32488 113.235 3.11454C113.446 2.86376 113.72 2.68579 114.036 2.58062C114.359 2.43501 114.674 2.37029 114.998 2.37029C115.321 2.37029 115.637 2.4431 115.96 2.58062C116.283 2.68579 116.566 2.86376 116.817 3.11454C117.027 3.32488 117.213 3.59993 117.35 3.91543C117.496 4.23901 117.561 4.55451 117.561 4.8781C117.561 5.20169 117.496 5.51719 117.35 5.84078ZM112.637 12.8627C113.672 12.8627 114.456 12.8627 114.99 12.8627C116.065 12.8627 116.865 12.8627 117.399 12.8627C117.399 26.2269 117.399 36.242 117.399 42.9241C115.257 42.9241 113.664 42.9241 112.629 42.9241C112.637 29.5679 112.637 19.5448 112.637 12.8627Z" fill="#BDBDBD"/>
<path d="M155.001 30.652C155.001 32.5126 155.001 34.4784 155.001 36.5494C155.001 38.232 155.001 39.7124 155.001 40.9987V42.9322C152.859 42.9322 151.25 42.9322 150.182 42.9322V40.1493C150.182 38.2887 150.182 36.3471 150.182 34.3085C150.182 32.6259 150.182 31.1293 150.182 29.8106C150.182 28.492 150.182 27.8125 150.182 27.772C150.182 23.7352 149.269 20.4346 147.45 17.854C145.631 15.2815 143.019 13.9952 139.632 13.9952C137.166 13.9952 135.064 14.6586 133.31 15.9772C131.563 17.2958 130.165 18.9947 129.13 21.0656C129.13 30.7814 129.13 38.0702 129.13 42.9322C126.987 42.9322 125.379 42.9322 124.311 42.9322C124.311 28.8237 124.311 18.2504 124.311 11.2043C126.454 11.2043 128.063 11.2043 129.13 11.2043C129.13 14.1004 129.13 16.2603 129.13 17.6922C130.343 16.0824 131.822 14.7637 133.576 13.7283C135.323 12.6523 137.344 12.1184 139.624 12.1184C141.192 12.1184 142.68 12.3368 144.07 12.7656C145.461 13.162 146.746 13.7283 147.927 14.4806C150.102 15.872 151.84 17.7327 153.125 20.0544C154.378 22.4085 155.001 24.9811 155.001 27.772C155.001 27.7963 155.001 28.759 155.001 30.652Z" fill="#BDBDBD"/>
</svg>
