<svg width="190" height="56" viewBox="0 0 190 56" fill="none" xmlns="http://www.w3.org/2000/svg">
<path d="M119.749 13.775H117.397C117.068 13.775 116.799 14.045 116.799 14.375V27.395C116.799 27.745 117.088 28.015 117.437 27.995C121.164 27.795 125.399 26.605 125.399 19.625C125.399 13.795 119.749 13.775 119.749 13.775Z" fill="#BDBDBD"/>
<path d="M47.6188 27.675C46.7717 28.195 45.3865 29.045 43.0546 30.465C41.9186 31.165 41.4801 32.195 41.4801 33.175C41.4801 34.495 42.2873 35.735 43.3038 35.975C43.822 36.095 44.4398 36.145 45.0676 36.145C46.2336 36.145 47.4594 35.975 48.2865 35.715C48.5356 35.635 48.705 35.395 48.6951 35.135L48.5257 28.175C48.5157 27.705 48.0075 27.435 47.6188 27.675Z" fill="#BDBDBD"/>
<path d="M25.6749 13.775H23.3231C22.9942 13.775 22.7251 14.045 22.7251 14.375V27.395C22.7251 27.745 23.0141 28.015 23.3629 27.995C27.09 27.795 31.3253 26.605 31.3253 19.625C31.3253 13.795 25.6749 13.775 25.6749 13.775Z" fill="#BDBDBD"/>
<path d="M141.703 27.675C140.855 28.195 139.47 29.045 137.138 30.465C136.002 31.165 135.564 32.195 135.564 33.175C135.564 34.495 136.371 35.735 137.387 35.975C137.906 36.095 138.524 36.145 139.151 36.145C140.317 36.145 141.543 35.975 142.37 35.715C142.619 35.635 142.789 35.395 142.779 35.135L142.609 28.175C142.589 27.705 142.091 27.435 141.703 27.675Z" fill="#BDBDBD"/>
<path d="M189.278 4.57504V0.915039H185.63C185.63 0.925039 185.63 0.925039 185.63 0.935039C185.63 2.00504 184.763 2.87504 183.697 2.87504C182.631 2.87504 181.764 2.00504 181.764 0.935039C181.764 0.925039 181.764 0.925039 181.764 0.915039H179.501C179.501 0.925039 179.501 0.925039 179.501 0.935039C179.501 2.00504 178.634 2.87504 177.568 2.87504C176.502 2.87504 175.635 2.00504 175.635 0.935039C175.635 0.925039 175.635 0.925039 175.635 0.915039H173.373C173.373 0.925039 173.373 0.925039 173.373 0.935039C173.373 2.00504 172.506 2.87504 171.439 2.87504C170.373 2.87504 169.506 2.00504 169.506 0.935039C169.506 0.925039 169.506 0.925039 169.506 0.915039H167.244C167.244 0.925039 167.244 0.925039 167.244 0.935039C167.244 2.00504 166.377 2.87504 165.311 2.87504C164.244 2.87504 163.377 2.00504 163.377 0.935039C163.377 0.925039 163.377 0.925039 163.377 0.915039H161.165C161.165 0.925039 161.165 0.925039 161.165 0.935039C161.165 2.00504 160.298 2.87504 159.232 2.87504C158.165 2.87504 157.298 2.00504 157.298 0.935039C157.298 0.925039 157.298 0.925039 157.298 0.915039H155.036C155.036 0.925039 155.036 0.925039 155.036 0.935039C155.036 2.00504 154.169 2.87504 153.103 2.87504C152.037 2.87504 151.17 2.00504 151.17 0.935039C151.17 0.925039 151.17 0.925039 151.17 0.915039H148.908C148.908 0.925039 148.908 0.925039 148.908 0.935039C148.908 2.00504 148.041 2.87504 146.974 2.87504C145.908 2.87504 145.041 2.00504 145.041 0.935039C145.041 0.925039 145.041 0.925039 145.041 0.915039H142.779C142.779 0.925039 142.779 0.925039 142.779 0.935039C142.779 2.00504 141.912 2.87504 140.845 2.87504C139.779 2.87504 138.912 2.00504 138.912 0.935039C138.912 0.925039 138.912 0.925039 138.912 0.915039H136.65C136.65 0.925039 136.65 0.925039 136.65 0.935039C136.65 2.00504 135.783 2.87504 134.717 2.87504C133.65 2.87504 132.783 2.00504 132.783 0.935039C132.783 0.925039 132.783 0.925039 132.783 0.915039H130.521C130.521 0.925039 130.521 0.925039 130.521 0.935039C130.521 2.00504 129.654 2.87504 128.588 2.87504C127.522 2.87504 126.655 2.00504 126.655 0.935039C126.655 0.925039 126.655 0.925039 126.655 0.915039H124.393C124.393 0.925039 124.393 0.925039 124.393 0.935039C124.393 2.00504 123.526 2.87504 122.459 2.87504C121.393 2.87504 120.526 2.00504 120.526 0.935039C120.526 0.925039 120.526 0.925039 120.526 0.915039H118.264C118.264 0.925039 118.264 0.925039 118.264 0.935039C118.264 2.00504 117.397 2.87504 116.331 2.87504C115.264 2.87504 114.397 2.00504 114.397 0.935039C114.397 0.925039 114.397 0.925039 114.397 0.915039H112.135C112.135 0.925039 112.135 0.925039 112.135 0.935039C112.135 2.00504 111.268 2.87504 110.202 2.87504C109.135 2.87504 108.268 2.00504 108.268 0.935039C108.268 0.925039 108.268 0.925039 108.268 0.915039H106.006C106.006 0.925039 106.006 0.925039 106.006 0.935039C106.006 2.00504 105.139 2.87504 104.073 2.87504C103.007 2.87504 102.14 2.00504 102.14 0.935039C102.14 0.925039 102.14 0.925039 102.14 0.915039H99.8776C99.8776 0.925039 99.8776 0.925039 99.8776 0.935039C99.8776 2.00504 99.0106 2.87504 97.9443 2.87504C96.878 2.87504 96.011 2.00504 96.011 0.935039C96.011 0.925039 96.011 0.925039 96.011 0.915039H93.7488C93.7488 0.925039 93.7488 0.925039 93.7488 0.935039C93.7488 2.00504 92.8818 2.87504 91.8155 2.87504C90.7492 2.87504 89.8822 2.00504 89.8822 0.935039C89.8822 0.925039 89.8822 0.925039 89.8822 0.915039H87.6201C87.6201 0.925039 87.6201 0.925039 87.6201 0.935039C87.6201 2.00504 86.7531 2.87504 85.6868 2.87504C84.6205 2.87504 83.7535 2.00504 83.7535 0.935039C83.7535 0.925039 83.7535 0.925039 83.7535 0.915039H81.6408C81.6408 0.925039 81.6408 0.925039 81.6408 0.935039C81.6408 2.00504 80.7738 2.87504 79.7075 2.87504C78.6412 2.87504 77.7742 2.00504 77.7742 0.935039C77.7742 0.925039 77.7742 0.925039 77.7742 0.915039H75.5121C75.5121 0.925039 75.5121 0.925039 75.5121 0.935039C75.5121 2.00504 74.6451 2.87504 73.5788 2.87504C72.5125 2.87504 71.6455 2.00504 71.6455 0.935039C71.6455 0.925039 71.6455 0.925039 71.6455 0.915039H69.3833C69.3833 0.925039 69.3833 0.925039 69.3833 0.935039C69.3833 2.00504 68.5163 2.87504 67.45 2.87504C66.3837 2.87504 65.5167 2.00504 65.5167 0.935039C65.5167 0.925039 65.5167 0.925039 65.5167 0.915039H63.2546C63.2546 0.925039 63.2546 0.925039 63.2546 0.935039C63.2546 2.00504 62.3876 2.87504 61.3213 2.87504C60.255 2.87504 59.388 2.00504 59.388 0.935039C59.388 0.925039 59.388 0.925039 59.388 0.915039H57.1258C57.1258 0.925039 57.1258 0.925039 57.1258 0.935039C57.1258 2.00504 56.2588 2.87504 55.1925 2.87504C54.1262 2.87504 53.2592 2.00504 53.2592 0.935039C53.2592 0.925039 53.2592 0.925039 53.2592 0.915039H51.0469C51.0469 0.925039 51.0469 0.925039 51.0469 0.935039C51.0469 2.00504 50.1799 2.87504 49.1136 2.87504C48.0473 2.87504 47.1803 2.00504 47.1803 0.935039C47.1803 0.925039 47.1803 0.925039 47.1803 0.915039H44.9182C44.9182 0.925039 44.9182 0.925039 44.9182 0.935039C44.9182 2.00504 44.0512 2.87504 42.9849 2.87504C41.9186 2.87504 41.0516 2.00504 41.0516 0.935039C41.0516 0.925039 41.0516 0.925039 41.0516 0.915039H38.7894C38.7894 0.925039 38.7894 0.925039 38.7894 0.935039C38.7894 2.00504 37.9224 2.87504 36.8561 2.87504C35.7898 2.87504 34.9228 2.00504 34.9228 0.935039C34.9228 0.925039 34.9228 0.925039 34.9228 0.915039H32.6607C32.6607 0.925039 32.6607 0.925039 32.6607 0.935039C32.6607 2.00504 31.7937 2.87504 30.7274 2.87504C29.6611 2.87504 28.7941 2.00504 28.7941 0.935039C28.7941 0.925039 28.7941 0.925039 28.7941 0.915039H26.5319C26.5319 0.925039 26.5319 0.925039 26.5319 0.935039C26.5319 2.00504 25.6649 2.87504 24.5986 2.87504C23.5323 2.87504 22.6653 2.00504 22.6653 0.935039C22.6653 0.925039 22.6653 0.925039 22.6653 0.915039H20.4032C20.4032 0.925039 20.4032 0.925039 20.4032 0.935039C20.4032 2.00504 19.5362 2.87504 18.4699 2.87504C17.4036 2.87504 16.5366 2.00504 16.5366 0.935039C16.5366 0.925039 16.5366 0.925039 16.5366 0.915039H14.2744C14.2744 0.925039 14.2744 0.925039 14.2744 0.935039C14.2744 2.00504 13.4074 2.87504 12.3411 2.87504C11.2748 2.87504 10.4876 2.00504 10.4876 0.935039C10.4876 0.925039 10.4876 0.925039 10.4876 0.915039H8.22541C8.22541 0.925039 8.22541 0.925039 8.22541 0.935039C8.22541 2.00504 7.35842 2.87504 6.29212 2.87504C5.22581 2.87504 4.35882 2.00504 4.35882 0.935039C4.35882 0.925039 4.35882 0.925039 4.35882 0.915039H0.721436V4.57504C1.78774 4.57504 2.65473 5.44504 2.65473 6.51504C2.65473 7.58504 1.78774 8.45504 0.721436 8.45504V10.715C1.78774 10.715 2.65473 11.585 2.65473 12.655C2.65473 13.725 1.78774 14.595 0.721436 14.595V16.855C1.78774 16.855 2.65473 17.725 2.65473 18.795C2.65473 19.865 1.78774 20.725 0.721436 20.725V22.985C1.78774 22.985 2.65473 23.855 2.65473 24.925C2.65473 25.995 1.78774 26.865 0.721436 26.865V29.125C1.78774 29.125 2.65473 29.995 2.65473 31.065C2.65473 32.135 1.78774 33.005 0.721436 33.005V35.265C1.78774 35.265 2.65473 36.135 2.65473 37.205C2.65473 38.275 1.78774 39.145 0.721436 39.145V41.405C1.78774 41.405 2.65473 42.275 2.65473 43.345C2.65473 44.415 1.78774 45.285 0.721436 45.285V47.545C1.78774 47.545 2.65473 48.415 2.65473 49.485C2.65473 50.555 1.78774 51.425 0.721436 51.425V55.095H4.36879C4.36879 54.025 5.23578 53.155 6.30208 53.155C7.36838 53.155 8.23538 54.025 8.23538 55.095H10.4876C10.4876 54.025 11.3546 53.155 12.4209 53.155C13.4872 53.155 14.3542 54.025 14.3542 55.095H16.6063C16.6063 54.025 17.4733 53.155 18.5396 53.155C19.6059 53.155 20.4729 54.025 20.4729 55.095H22.7251C22.7251 54.025 23.5921 53.155 24.6584 53.155C25.7247 53.155 26.5917 54.025 26.5917 55.095H28.8439C28.8439 54.025 29.7109 53.155 30.7772 53.155C31.8435 53.155 32.7105 54.025 32.7105 55.095H34.9627C34.9627 54.025 35.8297 53.155 36.896 53.155C37.9623 53.155 38.8293 54.025 38.8293 55.095H41.0815C41.0815 54.025 41.9485 53.155 43.0148 53.155C44.0811 53.155 44.9481 54.025 44.9481 55.095H47.2002C47.2002 54.025 48.0672 53.155 49.1335 53.155C50.1999 53.155 51.0668 54.025 51.0668 55.095H53.319C53.319 54.025 54.186 53.155 55.2523 53.155C56.3186 53.155 57.1856 54.025 57.1856 55.095H59.4378C59.4378 54.025 60.3048 53.155 61.3711 53.155C62.4374 53.155 63.3044 54.025 63.3044 55.095H65.5566C65.5566 54.025 66.4236 53.155 67.4899 53.155C68.5562 53.155 69.4232 54.025 69.4232 55.095H71.6754C71.6754 54.025 72.5424 53.155 73.6087 53.155C74.675 53.155 75.542 54.025 75.542 55.095H77.7942C77.7942 54.025 78.6611 53.155 79.7274 53.155C80.7937 53.155 81.6607 54.025 81.6607 55.095H83.9129C83.9129 54.025 84.7799 53.155 85.8462 53.155C86.9125 53.155 87.7795 54.025 87.7795 55.095H90.0317C90.0317 54.025 90.8987 53.155 91.965 53.155C93.0313 53.155 93.8983 54.025 93.8983 55.095H96.1505C96.1505 54.025 97.0175 53.155 98.0838 53.155C99.1501 53.155 100.017 54.025 100.017 55.095H102.269C102.269 54.025 103.136 53.155 104.203 53.155C105.269 53.155 106.136 54.025 106.136 55.095H108.388C108.388 54.025 109.255 53.155 110.321 53.155C111.388 53.155 112.255 54.025 112.255 55.095H114.507C114.507 54.025 115.374 53.155 116.44 53.155C117.506 53.155 118.373 54.025 118.373 55.095H120.626C120.626 54.025 121.493 53.155 122.559 53.155C123.625 53.155 124.492 54.025 124.492 55.095H126.744C126.744 54.025 127.611 53.155 128.678 53.155C129.744 53.155 130.611 54.025 130.611 55.095H132.863C132.863 54.025 133.73 53.155 134.796 53.155C135.863 53.155 136.73 54.025 136.73 55.095H138.982C138.982 54.025 139.849 53.155 140.915 53.155C141.982 53.155 142.849 54.025 142.849 55.095H145.101C145.101 54.025 145.968 53.155 147.034 53.155C148.1 53.155 148.967 54.025 148.967 55.095H151.22C151.22 54.025 152.087 53.155 153.153 53.155C154.219 53.155 155.086 54.025 155.086 55.095H157.338C157.338 54.025 158.205 53.155 159.272 53.155C160.338 53.155 161.165 54.015 161.165 55.085H163.417C163.417 54.015 164.284 53.145 165.351 53.145C166.417 53.145 167.284 54.015 167.284 55.085H169.536C169.536 54.015 170.403 53.145 171.469 53.145C172.536 53.145 173.403 54.015 173.403 55.085H175.655C175.655 54.015 176.522 53.145 177.588 53.145C178.654 53.145 179.521 54.015 179.521 55.085H181.774C181.774 54.015 182.641 53.145 183.707 53.145C184.773 53.145 185.64 54.015 185.64 55.085H189.288V51.415C188.221 51.415 187.354 50.545 187.354 49.475C187.354 48.405 188.221 47.535 189.288 47.535V45.275C188.221 45.275 187.354 44.405 187.354 43.335C187.354 42.265 188.221 41.395 189.288 41.395V39.135C188.221 39.135 187.354 38.265 187.354 37.195C187.354 36.125 188.221 35.255 189.288 35.255V32.995C188.221 32.995 187.354 32.125 187.354 31.055C187.354 29.985 188.221 29.115 189.288 29.115V26.855C188.221 26.855 187.354 25.985 187.354 24.915C187.354 23.845 188.221 22.975 189.288 22.975V20.715C188.221 20.715 187.354 19.845 187.354 18.775C187.354 17.705 188.221 16.835 189.288 16.835V14.575C188.221 14.575 187.354 13.705 187.354 12.635C187.354 11.565 188.221 10.695 189.288 10.695V8.45504C188.221 8.45504 187.354 7.58504 187.354 6.51504C187.354 5.44504 188.211 4.57504 189.278 4.57504ZM28.1663 29.785H23.3131C22.9842 29.785 22.7152 30.055 22.7152 30.385V35.545C22.7152 35.545 22.7152 37.595 23.7117 39.475C23.921 39.875 23.642 40.355 23.1835 40.355H16.6362C16.1778 40.355 15.8988 39.855 16.128 39.455C17.0448 37.815 17.0947 35.905 17.0947 35.595V15.695C17.0947 15.385 17.0349 13.475 16.128 11.835C15.8988 11.435 16.1778 10.935 16.6362 10.935H28.824C28.824 10.935 36.6468 10.935 36.6468 19.645C36.6468 29.745 28.1663 29.785 28.1663 29.785ZM54.3355 38.865L50.7579 40.405C50.6084 40.465 50.439 40.475 50.2895 40.405C49.7813 40.185 48.705 39.495 48.705 37.665V36.915C47.8879 37.775 44.9381 40.735 42.6062 40.735C40.0451 40.735 35.9792 36.425 35.9792 33.435C35.9792 32.505 36.3678 31.705 37.3245 31.195C40.8323 29.375 45.3267 27.135 48.147 25.765C48.3562 25.665 48.4858 25.455 48.4758 25.225C48.4659 23.975 48.1071 21.245 46.9511 21.245C44.7786 21.245 42.6959 22.745 41.4004 24.725C41.1313 25.125 40.5334 25.075 40.354 24.625L38.8791 21.005C38.7894 20.775 38.8392 20.505 39.0286 20.335C41.4303 18.225 44.7487 17.935 47.7284 19.105C53.5482 21.385 53.628 24.545 53.628 25.355C53.628 28.715 53.628 31.505 53.628 34.865C53.628 35.185 53.6778 36.755 54.5747 37.925C54.8039 38.255 54.7042 38.705 54.3355 38.865ZM72.6719 20.525L69.3634 24.675C69.1242 24.975 68.6658 24.975 68.4366 24.675C67.9284 24.015 66.9119 23.095 65.2277 23.095C64.58 23.095 63.8425 23.225 62.9855 23.565C62.7563 23.655 62.6168 23.875 62.6168 24.115L62.6567 35.445C62.6567 35.635 62.6865 37.435 63.7728 39.585C63.9721 39.975 63.6731 40.445 63.2346 40.445H57.2653C56.8069 40.445 56.5279 39.955 56.7471 39.555C57.6739 37.895 57.7437 36.055 57.7437 35.555V25.235C57.7437 25.235 57.6739 23.335 56.6674 22.005C56.4382 21.705 56.5478 21.265 56.8966 21.105L61.7697 18.875C62.1683 18.695 62.6168 18.985 62.6168 19.415V20.805C62.6168 21.325 63.2446 21.605 63.6133 21.245C64.859 20.055 66.9019 18.565 69.3335 18.565C71.1472 18.565 72.1537 19.245 72.6321 19.705C72.8413 19.935 72.8613 20.285 72.6719 20.525ZM80.3951 41.065C76.0602 41.065 74.7049 37.455 74.7447 35.555C74.7746 33.925 75.1234 24.655 75.2131 22.165C75.2231 21.825 74.954 21.545 74.6152 21.545H74.6052C74.077 21.545 73.808 20.905 74.1767 20.525L79.0498 15.525C79.4185 15.145 80.0762 15.405 80.0762 15.945V18.855C80.0762 19.185 80.3453 19.455 80.6742 19.455H84.2219C84.6404 19.455 84.9294 19.875 84.7799 20.265L84.4511 21.165C84.3614 21.395 84.1421 21.555 83.893 21.555H80.7639C80.435 21.555 80.1659 21.825 80.1659 22.155V35.715C80.1659 38.235 83.893 38.335 86.215 38.035C86.8029 37.955 87.1417 38.695 86.6833 39.085C85.5871 40.015 83.6439 41.065 80.3951 41.065ZM108.398 20.435C107.521 21.425 106.784 22.505 106.146 24.125C106.146 24.125 101.333 35.725 99.3793 40.485C97.4161 45.245 92.9416 48.745 89.2743 48.745C86.9723 48.745 85.617 48.165 84.9294 47.725C84.6005 47.515 84.5507 47.055 84.8397 46.785L88.1482 43.595C88.4372 43.315 88.9256 43.395 89.095 43.765C89.5633 44.745 90.54 46.325 91.9451 46.325C94.6059 46.325 95.7718 41.875 95.8316 40.525C95.8316 40.445 95.8216 40.375 95.7917 40.305C95.3333 39.025 90.8987 26.805 90.1613 24.795C89.5534 23.125 88.7362 21.645 87.7596 20.415C87.4507 20.025 87.7397 19.455 88.228 19.455H95.5127C95.9911 19.455 96.2601 19.985 96.001 20.385C95.423 21.325 95.433 22.305 95.8515 23.605C96.2601 24.885 98.0938 30.615 99.0106 33.495C99.18 34.035 99.9473 34.045 100.137 33.515L103.525 24.185C104.023 22.485 103.475 21.575 102.538 20.435C102.219 20.045 102.498 19.455 102.997 19.455H107.95C108.468 19.445 108.747 20.055 108.398 20.435ZM122.25 29.785H117.397C117.068 29.785 116.799 30.055 116.799 30.385V35.545C116.799 35.545 116.799 37.595 117.795 39.475C118.005 39.875 117.726 40.355 117.267 40.355H110.72C110.262 40.355 109.983 39.855 110.212 39.455C111.129 37.815 111.178 35.905 111.178 35.595V15.695C111.178 15.385 111.119 13.475 110.212 11.835C109.983 11.435 110.262 10.935 110.72 10.935H122.888C122.888 10.935 130.711 10.935 130.711 19.645C130.731 29.745 122.25 29.785 122.25 29.785ZM148.419 38.865L144.842 40.405C144.692 40.465 144.523 40.475 144.373 40.405C143.865 40.185 142.789 39.495 142.789 37.665V36.915C141.972 37.775 139.022 40.735 136.69 40.735C134.129 40.735 130.063 36.425 130.063 33.435C130.063 32.505 130.452 31.705 131.408 31.195C134.916 29.375 139.41 27.135 142.231 25.765C142.44 25.665 142.57 25.455 142.56 25.225C142.55 23.975 142.191 21.245 141.035 21.245C138.862 21.245 136.78 22.745 135.484 24.725C135.215 25.125 134.617 25.075 134.438 24.625L132.963 21.005C132.873 20.775 132.923 20.505 133.112 20.335C135.514 18.225 138.832 17.935 141.812 19.105C147.632 21.385 147.712 24.545 147.712 25.355C147.712 28.715 147.712 31.505 147.712 34.865C147.712 35.185 147.762 36.755 148.658 37.925C148.888 38.255 148.778 38.705 148.419 38.865ZM169.546 40.405H162.809C162.351 40.405 162.072 39.915 162.291 39.515C162.49 39.145 162.61 38.855 162.61 38.635C162.61 38.265 162.49 37.775 162.162 37.235L162.082 37.115L159.361 33.055C159.112 32.685 158.554 32.705 158.345 33.105L156.152 37.235C155.903 37.725 155.664 38.225 155.664 38.635C155.664 38.845 155.794 39.125 156.023 39.485C156.272 39.885 155.993 40.405 155.525 40.405H151.249C150.711 40.405 150.452 39.745 150.841 39.375C151.648 38.585 152.495 37.565 153.452 36.135L157.239 30.555C157.378 30.355 157.378 30.085 157.239 29.875L153.332 24.175C152.266 22.615 151.479 21.445 150.582 20.445C150.243 20.055 150.512 19.455 151.02 19.455H157.697C158.155 19.455 158.434 19.945 158.215 20.345C158.046 20.665 157.956 20.935 157.956 21.185C157.956 21.555 158.165 22.085 158.484 22.625L160.517 25.995C160.756 26.395 161.344 26.375 161.554 25.965L163.318 22.585C163.477 22.255 163.896 21.395 163.896 21.185C163.896 21.055 163.776 20.775 163.537 20.355C163.318 19.955 163.597 19.465 164.055 19.465H168.211C168.749 19.465 169.008 20.125 168.619 20.495C167.902 21.195 167.104 22.155 166.108 23.455L162.48 28.165C162.321 28.375 162.311 28.655 162.461 28.865L166.805 35.245C167.782 36.685 168.818 38.095 170.004 39.425C170.333 39.795 170.064 40.405 169.546 40.405Z" fill="#BDBDBD"/>
</svg>
