<svg width="269" height="30" viewBox="0 0 269 30" fill="none" xmlns="http://www.w3.org/2000/svg">
<path d="M32.741 12.5645C32.741 4.05444 37.4087 0 48.2906 0C59.1291 0 63.8258 4.09742 63.8258 12.5645C63.8258 21.0745 59.1291 25.2006 48.2906 25.2006C37.4087 25.2149 32.741 21.1175 32.741 12.5645ZM54.6492 12.5645C54.6492 10.0143 53.7243 7.69341 48.2906 7.69341C42.8569 7.69341 41.932 9.97135 41.932 12.5645C41.932 15.1862 42.8858 17.5072 48.2906 17.5072C53.6954 17.5072 54.6492 15.1576 54.6492 12.5645Z" fill="#BDBDBD"/>
<path d="M82.7282 0C92.6129 0 97.7721 3.42407 98.1623 11.1748H88.7689C88.4221 8.86819 86.6156 7.70774 82.7282 7.70774C77.2945 7.70774 76.3696 9.98567 76.3696 12.5788C76.3696 15.2006 77.3234 17.5215 82.7282 17.5215C86.6156 17.5215 88.4076 16.3324 88.7689 13.9828H98.1623C97.7721 21.7622 92.6563 25.2149 82.7282 25.2149C71.8464 25.2149 67.193 21.1175 67.193 12.5788C67.1786 4.05444 71.8464 0 82.7282 0Z" fill="#BDBDBD"/>
<path d="M121.255 11.9054L135.49 24.8567H122.773L114.868 17.0773L111.053 20.2006V24.8567H101.876V0.34382H111.053V9.94267L122.426 0.34382H135.49L121.255 11.9054Z" fill="#BDBDBD"/>
<path d="M167.731 9.72777C167.731 15.1862 163.887 19.1117 158.265 19.1117H148.019V24.8567H138.843V0.34382H158.265C163.887 0.34382 167.731 4.26932 167.731 9.72777ZM158.554 9.72777C158.554 8.05156 157.427 8.05156 156.502 8.05156H148.019V11.4183H156.502C157.427 11.4183 158.554 11.4183 158.554 9.72777Z" fill="#BDBDBD"/>
<path d="M171.098 12.5645C171.098 4.05444 175.766 0 186.633 0C197.472 0 202.168 4.09742 202.168 12.5645C202.168 21.0745 197.472 25.2006 186.633 25.2006C175.751 25.2149 171.098 21.1175 171.098 12.5645ZM192.992 12.5645C192.992 10.0143 192.067 7.69341 186.633 7.69341C181.2 7.69341 180.275 9.97135 180.275 12.5645C180.275 15.1862 181.228 17.5072 186.633 17.5072C192.038 17.5072 192.992 15.1576 192.992 12.5645Z" fill="#BDBDBD"/>
<path d="M230.392 17.8223L234.771 24.8567H223.889L220.464 19.1117H215.059V24.8567H205.882V0.34382H225.305C230.927 0.34382 234.771 4.26932 234.771 9.72777C234.771 13.3094 233.109 16.2464 230.392 17.8223ZM215.073 11.4183H223.556C224.481 11.4183 225.609 11.4183 225.609 9.7421C225.609 8.06588 224.481 8.06588 223.556 8.06588H215.073V11.4183Z" fill="#BDBDBD"/>
<path d="M257.907 8.05156V24.8567H248.731V8.05156H238.138V0.34382H268.515V8.05156H257.907Z" fill="#BDBDBD"/>
<path d="M9.66215 12.4069L0.5 16.4184V18.7536L9.66215 14.7422V12.4069Z" fill="#BDBDBD"/>
<path d="M9.66215 17.4356L0.5 21.447V23.7966L9.66215 19.7851V17.4356Z" fill="#BDBDBD"/>
<path d="M29.316 9.71347C29.316 4.26935 25.4719 0.35817 19.8792 0.35817H0.5V13.7249L9.66215 9.71347V8.03725H18.1162C19.0266 8.03725 20.1538 8.03725 20.1538 9.71347C20.1538 11.3897 19.0266 11.3897 18.1162 11.3897H10.4714L18.463 24.7994H29.316L24.9517 17.7794C27.6541 16.2034 29.316 13.2665 29.316 9.71347Z" fill="#BDBDBD"/>
<path d="M0.5 26.4756V28.2091L5.08107 30L9.66215 28.2091V22.4785L0.5 26.4756Z" fill="#BDBDBD"/>
</svg>
