<svg width="237" height="40" viewBox="0 0 237 40" fill="none" xmlns="http://www.w3.org/2000/svg">
<path d="M38.841 26.0735C38.9281 25.7893 39.0151 25.5051 39.1021 25.2209C39.1146 25.1838 39.127 25.1467 39.1394 25.0973C39.214 24.8378 39.2762 24.566 39.3384 24.3065C39.3508 24.2447 39.3757 24.1705 39.3881 24.1087C39.4378 23.874 39.4876 23.6268 39.5249 23.3797C39.5373 23.2808 39.5622 23.1943 39.5746 23.0955C39.6119 22.873 39.6368 22.663 39.6616 22.4405C39.6741 22.317 39.6989 22.1934 39.7114 22.0698C39.7362 21.8721 39.7487 21.6744 39.7611 21.4767C39.7735 21.3284 39.786 21.1925 39.7984 21.0442C39.8108 20.8588 39.8108 20.6735 39.8233 20.4881C39.8233 20.3275 39.8357 20.1668 39.8357 20.0185C39.8357 19.9815 39.8357 19.9568 39.8357 19.9197C39.8357 19.759 39.8233 19.6108 39.8233 19.4501C39.8233 19.3142 39.8233 19.1906 39.8108 19.067C39.8108 19.0423 39.8108 19.0176 39.8108 18.9805C39.7984 18.8323 39.786 18.684 39.786 18.5233C39.7735 18.3503 39.7611 18.1773 39.7487 17.992C39.7362 17.819 39.7114 17.646 39.6865 17.473C39.6741 17.3247 39.6492 17.1764 39.6368 17.0405C39.6119 16.8304 39.5746 16.6327 39.5373 16.4226C39.5249 16.3238 39.5 16.2125 39.4876 16.1137C39.4378 15.8665 39.3881 15.6194 39.3259 15.3846C39.3135 15.3352 39.3011 15.2858 39.2886 15.224C37.4858 7.94563 31.6423 2.23664 24.2446 0.605499C24.2197 0.605499 24.2073 0.593142 24.1824 0.593142C23.9337 0.543713 23.6851 0.494285 23.4364 0.444856C23.3494 0.432499 23.2624 0.407785 23.1753 0.395428C22.9764 0.358357 22.7775 0.333642 22.5661 0.308928C22.4293 0.296571 22.2926 0.271857 22.1558 0.2595C21.9817 0.234785 21.8201 0.222428 21.646 0.210071C21.4844 0.197714 21.3104 0.185357 21.1487 0.173C20.9871 0.160643 20.8379 0.160643 20.6763 0.148285C20.5768 0.148285 20.4898 0.135928 20.3903 0.135928C20.2784 0.135928 20.1541 0.135928 20.0422 0.135928C20.0049 0.135928 19.9551 0.135928 19.9178 0.135928C19.893 0.135928 19.8681 0.135928 19.8432 0.135928C19.5449 0.135928 19.2465 0.148285 18.9481 0.160643C18.8859 0.160643 18.8237 0.173 18.774 0.173C18.5129 0.185357 18.2642 0.210071 18.0156 0.234785C17.9534 0.234785 17.8912 0.247142 17.8291 0.247142C17.5431 0.271857 17.2572 0.308928 16.9712 0.358357C16.909 0.370714 16.8344 0.383071 16.7723 0.395428C16.536 0.432499 16.2874 0.481928 16.0511 0.518999C15.989 0.531356 15.9268 0.543713 15.8647 0.55607C15.5911 0.617856 15.3176 0.679642 15.0441 0.741427C14.9695 0.766142 14.8949 0.778499 14.8203 0.803213C14.5965 0.864999 14.3727 0.926784 14.1613 0.98857C14.0992 1.01328 14.0246 1.02564 13.9624 1.05036C13.6764 1.11214 13.4153 1.19864 13.1667 1.2975C13.0796 1.32221 13.005 1.35928 12.918 1.384C12.7191 1.45814 12.5201 1.53228 12.3212 1.61878C12.2466 1.6435 12.172 1.68057 12.0974 1.70528C11.8612 1.80414 11.625 1.91535 11.4012 2.02657C11.3017 2.076 11.2147 2.11307 11.1152 2.1625C10.9411 2.249 10.7795 2.3355 10.6054 2.422C10.5184 2.45907 10.4438 2.5085 10.3568 2.54557C10.1454 2.66914 9.93406 2.78035 9.72269 2.91628C9.62323 2.97807 9.52376 3.03985 9.41187 3.10164C9.2751 3.18814 9.13834 3.27464 9.00157 3.37349C8.86481 3.45999 8.72805 3.54649 8.59128 3.64535C8.44208 3.74421 8.29289 3.84307 8.15612 3.95428C8.04422 4.02842 7.94476 4.11492 7.83286 4.20142C7.70853 4.27556 7.59663 4.36206 7.49717 4.44856C7.3231 4.58449 7.16147 4.72042 6.99984 4.85635C6.88794 4.95521 6.78848 5.04171 6.68901 5.12821C6.57712 5.22706 6.46522 5.32592 6.35332 5.42478C6.26629 5.49892 6.19169 5.58542 6.10466 5.65956C5.91816 5.83256 5.73166 6.01792 5.5576 6.20328C5.483 6.28977 5.4084 6.35156 5.34624 6.43806C5.23434 6.54927 5.12244 6.67285 5.01054 6.79642C4.94838 6.87056 4.88621 6.93235 4.83648 7.00649C4.64998 7.21656 4.46349 7.43899 4.28942 7.66142C4.22726 7.7232 4.17753 7.79734 4.12779 7.85913C4.0159 7.99506 3.91643 8.13099 3.81697 8.26691C3.76723 8.3287 3.72993 8.39049 3.69263 8.45227C3.51857 8.69941 3.34451 8.95891 3.17044 9.20606C3.14558 9.25548 3.10828 9.29256 3.08341 9.34198C3.08341 9.34198 3.08341 9.35434 3.07098 9.35434C1.13141 12.4189 0 16.0395 0 19.9197C0 30.8557 8.91454 39.7158 19.9178 39.7158C28.3972 39.7158 35.6333 34.4393 38.5053 27.025C38.6172 26.7285 38.7291 26.4319 38.8286 26.123C38.8286 26.0982 38.841 26.0859 38.841 26.0735ZM14.1862 5.36299C16.2874 5.36299 17.9907 7.05592 17.9907 9.14427C17.9907 11.2326 16.2874 12.9255 14.1862 12.9255C12.085 12.9255 10.3816 11.2326 10.3816 9.14427C10.3816 7.05592 12.085 5.36299 14.1862 5.36299ZM4.77432 12.0729L16.8842 25.8264C17.1826 26.16 17.7048 26.16 18.0031 25.8264L26.4079 16.3608C26.7188 16.0148 27.2534 16.0148 27.5642 16.3608L35.9317 25.8017C35.5338 26.8644 35.0241 27.89 34.4273 28.8415H5.39597C3.76723 26.2465 2.83475 23.182 2.83475 19.9073C2.83475 17.0899 3.531 14.4208 4.77432 12.0729ZM30.3244 33.3642H9.4989C8.82751 32.8452 8.19342 32.2768 7.59663 31.6713H32.2266C31.6423 32.2768 31.0082 32.8452 30.3244 33.3642ZM11.6498 34.7729H28.1859C25.7365 36.1322 22.9142 36.8984 19.9178 36.8984C16.909 36.8984 14.0991 36.1199 11.6498 34.7729Z" fill="#BDBDBD"/>
<path d="M71.938 12.4313C71.8883 10.1205 70.0482 8.77356 67.0145 8.77356C64.5279 8.77356 63.1105 9.63856 63.1105 11.1461C63.1105 13.5187 69.7125 14.4331 71.3412 14.8656C77.7816 16.5338 84.6073 19.0053 84.6073 26.9756C84.6073 34.9459 78.0551 40 67.7605 40C56.981 40 50.379 34.7729 50.2671 26.2218H62.1283C62.3396 29.9413 64.6771 31.177 68.1459 31.177C71.1298 31.177 72.9699 29.9413 72.9699 28.0012C72.9699 27.3587 72.6964 26.8767 72.2115 26.4442C70.645 25.1467 63.9808 23.5403 61.3201 22.6259C55.7998 20.7476 51.7839 18.5851 51.7839 12.0235C51.7963 4.79456 58.0751 0 67.3875 0C77.2469 0 82.9289 4.52271 83.0408 12.4313H71.938Z" fill="#BDBDBD"/>
<path d="M111.251 15.7183L127.439 39.135H112.656L103.232 24.22L99.7633 27.8282V39.135H88.1135V0.803213H99.813L99.7633 8.55113C99.7633 12.2088 99.7136 11.0843 99.6017 14.4208L110.593 0.803213H125.214L111.251 15.7183Z" fill="#BDBDBD"/>
<path d="M162.911 23.4662C162.911 35.5762 156.471 39.827 145.368 39.827C133.345 39.827 127.875 34.2787 127.875 24.1087V0.803213H139.686V24.2694C139.686 28.2484 141.414 30.1884 145.592 30.1884C149.334 30.1884 151.112 28.2484 151.112 24.2694V0.803213H162.924V23.4662H162.911Z" fill="#BDBDBD"/>
<path d="M191.83 18.7828L205.644 39.135H191.346L187.603 32.8947C186.522 31.1152 185.602 29.2864 184.781 27.4081C183.811 29.3482 182.829 31.2264 181.698 33.0553L178.017 39.135H164.316L178.341 18.7828L165.609 0.803213H179.472L182.394 5.85728C183.475 7.68613 184.395 9.57677 185.266 11.5045C186.074 9.78684 186.895 8.11863 187.815 6.45042L190.96 0.803213H204.127L191.83 18.7828Z" fill="#BDBDBD"/>
<path d="M224.318 12.4313C224.268 10.1205 222.428 8.77356 219.395 8.77356C216.908 8.77356 215.491 9.63856 215.491 11.1461C215.491 13.5187 222.093 14.4331 223.721 14.8656C230.162 16.5338 236.988 19.0053 236.988 26.9756C236.988 34.9459 230.435 40 220.141 40C209.361 40 202.759 34.7729 202.647 26.2218H214.508C214.72 29.9413 217.057 31.177 220.526 31.177C223.51 31.177 225.35 29.9413 225.35 28.0012C225.35 27.3587 225.077 26.8767 224.592 26.4442C223.025 25.1467 216.361 23.5403 213.7 22.6259C208.18 20.7476 204.164 18.5851 204.164 12.0235C204.164 4.80692 210.443 0.0247142 219.768 0.0247142C229.627 0.0247142 235.309 4.54742 235.421 12.456H224.318V12.4313Z" fill="#BDBDBD"/>
</svg>
